<svg xmlns="http://www.w3.org/2000/svg" height="150" width="150"><path d="M89.911 74.995L75.012 60.086 63.995 71.103l-1.273 1.263-2.609 2.608-.02.02.02.032 14.9 14.888L89.91 75.005l.01-.01zm20.713.01l14.688-14.687L140 75.006l-14.688 14.688zm-60.86 10.37l25.248 25.249 25.26-25.259 14.694 14.673-.01.01L75.011 140 35.07 100.069l-.02-.02zM10 75.003l14.688-14.688 14.688 14.688L24.688 89.69zm39.763-10.378l25.25-25.238 25.259 25.259 14.683-14.693L75.012 10 35.07 49.942z" fill="#f3ba2f" stroke-width="1.027"/></svg>