<svg xmlns="http://www.w3.org/2000/svg" clip-rule="evenodd" fill-rule="evenodd" image-rendering="optimizeQuality" text-rendering="geometricPrecision" shape-rendering="geometricPrecision" height="150" width="150"><g fill-rule="nonzero"><path d="M142.906 91.933c-9.35 37.5-47.337 60.323-84.846 50.971-37.493-9.349-60.318-47.333-50.963-84.83 9.346-37.505 47.332-60.328 84.83-50.98 37.505 9.35 60.329 47.338 50.978 84.84z" fill="#f7931a"/><path d="M105.87 65.027c1.394-9.316-5.7-14.323-15.398-17.664l3.146-12.618-7.682-1.914-3.063 12.286c-2.02-.504-4.094-.978-6.155-1.449l3.085-12.367-7.677-1.914-3.148 12.614a253.94 253.94 0 01-4.906-1.152l.01-.04-10.595-2.645-2.043 8.204s5.7 1.306 5.58 1.387c3.11.776 3.673 2.835 3.58 4.467l-3.585 14.376c.214.054.492.133.799.256-.257-.063-.53-.133-.812-.2L51.982 86.79c-.38.945-1.345 2.364-3.52 1.825.077.112-5.584-1.393-5.584-1.393l-3.814 8.793 9.997 2.491c1.86.467 3.683.955 5.478 1.414l-3.18 12.763 7.674 1.914 3.148-12.628c2.096.57 4.13 1.094 6.122 1.589l-3.137 12.568 7.682 1.914 3.179-12.74c13.1 2.48 22.95 1.48 27.096-10.367 3.34-9.539-.167-15.04-7.058-18.629 5.02-1.157 8.8-4.458 9.808-11.277l-.002-.002zm-17.552 24.61c-2.374 9.538-18.436 4.382-23.643 3.089l4.218-16.91c5.208 1.3 21.907 3.873 19.426 13.82zm2.376-24.749c-2.166 8.677-15.534 4.269-19.87 3.188l3.824-15.336c4.337 1.081 18.302 3.099 16.047 12.148z" fill="#fff"/></g></svg>