<svg xmlns="http://www.w3.org/2000/svg" height="150" width="150"><path d="M87.723 50.291c0-18.634-8.983-34.688-15.863-39.944 0 0-.478-.286-.478.478-.573 36.026-18.825 45.869-28.954 58.96-23.221 30.388-1.625 63.643 20.354 69.759 12.327 3.44-2.867-6.116-4.778-26.183-2.293-24.368 29.72-42.907 29.72-63.07" fill="#282e5b"/><path d="M99.764 62.618c-.096-.095-.287-.095-.478 0l-.096.096c-.382 4.491-5.351 14.238-11.562 23.125-21.12 30.197-9.079 44.722-2.294 52.558 3.918 4.587 0 0 9.843-4.682.764-.382 19.112-10.13 21.118-32.204 2.007-21.5-11.658-34.975-16.531-38.893" fill="#059bdc"/></svg>