<svg xmlns="http://www.w3.org/2000/svg" fill="none" height="150" width="150"><defs><linearGradient gradientUnits="userSpaceOnUse" y2="453" x2="226.721" y1="0" x1="226.721" id="a"><stop stop-color="#E7ECEF"/><stop stop-color="#F7F8F9" offset="1"/></linearGradient><linearGradient gradientUnits="userSpaceOnUse" y2="383.207" x2="200.081" y1="64.638" x1="200.081" id="b"><stop stop-color="#20203D"/><stop stop-color="#292946" offset=".932"/></linearGradient><linearGradient gradientUnits="userSpaceOnUse" y2="353.587" x2="275.403" y1="92.515" x1="275.403" id="c"><stop stop-color="#51516C"/><stop stop-color="#797ABC" offset=".932"/></linearGradient><linearGradient gradientUnits="userSpaceOnUse" y2="303.364" x2="229.719" y1="186.03" x1="210.813" id="d"><stop stop-color="#21213E" offset=".059"/><stop stop-color="#7A7BBD" offset="1"/></linearGradient></defs><path d="M226.721 453c125.093 0 226.5-101.408 226.5-226.5S351.814 0 226.721 0C101.629 0 .221 101.408.221 226.5S101.63 453 226.721 453z" fill="url(#a)" transform="translate(4.932 5) scale(.30905)"/><path fill-rule="evenodd" clip-rule="evenodd" d="M75 138.295c35.401 0 64.1-28.698 64.1-64.1 0-35.4-28.699-64.1-64.1-64.1-35.401 0-64.1 28.7-64.1 64.1 0 35.402 28.699 64.1 64.1 64.1z" fill="#fff"/><g clip-rule="evenodd" fill-rule="evenodd"><path fill="url(#b)" d="M335.048 111.346c-22.767-16.715-50.871-26.588-81.281-26.588-75.932 0-137.487 61.555-137.487 137.488 0 75.932 61.555 137.487 137.487 137.487 35.713 0 68.245-13.616 92.688-35.94-29.197 36.233-73.937 59.414-124.092 59.414-87.971 0-159.285-71.314-159.285-159.285 0-87.97 71.314-159.284 159.285-159.284 44.012 0 83.856 17.85 112.685 46.708z" transform="matrix(.34743 0 0 .34743 -3.718 -3.594)"/><path fill="url(#c)" d="M229.477 95.452c63.264 7.331 112.375 61.09 112.375 126.319 0 67.846-53.13 123.283-120.054 126.975a130.655 130.655 0 0035.344 4.841c72.093 0 130.536-58.443 130.536-130.536S329.235 92.515 257.142 92.515a131.05 131.05 0 00-27.665 2.937z" transform="matrix(.34743 0 0 .34743 -3.718 -3.594)"/><path fill="url(#d)" d="M212.249 156.732h7.64v19.001l3.839-.102h5.521c1.821 0 3.582.022 5.282.065v-18.964h7.64v19.335c10.606.79 18.235 2.654 22.889 5.59 6.366 4.018 9.549 9.493 9.549 16.426 0 5.234-2.101 9.665-6.304 13.292-4.203 3.627-10.532 6.474-18.987 8.54 9.947 1.653 17.408 4.58 22.381 8.781 4.974 4.201 7.461 9.676 7.461 16.426 0 7.576-3.183 13.544-9.55 17.906-5.735 3.93-14.882 6.089-27.439 6.479v20.423h-7.64v-20.359h-14.642v20.359h-7.64v-20.359h-27.39v-7.645c5.322 0 8.853-.769 10.594-2.307 1.741-1.538 2.611-4.58 2.611-9.125v-54.753c0-4.408-.82-7.415-2.462-9.022-1.641-1.607-5.222-2.41-10.743-2.41v-7.645l27.39-.728zm17.448 59.188h-5.148v-32.163c5.371 0 9.437.368 12.198 1.102 2.76.735 4.986 2.365 6.677 4.89 1.691 2.525 2.537 5.969 2.537 10.331 0 5.831-1.343 9.929-4.029 12.293-2.686 2.365-6.764 3.547-12.235 3.547zm-5.148 8.403v26.515c0 2.571.286 4.523.858 5.854.572 1.332 1.691 2.445 3.357 3.34 1.666.896 4.016 1.343 7.05 1.343 4.725 0 8.269-1.538 10.631-4.614 2.363-3.076 3.544-7.691 3.544-13.843 0-4.913-.771-8.758-2.313-11.536-1.541-2.778-3.655-4.649-6.341-5.613-2.686-.964-6.665-1.446-11.937-1.446z" transform="matrix(.34743 0 0 .34743 -3.718 -3.594)"/></g></svg>