<svg xmlns="http://www.w3.org/2000/svg" fill="none" height="150" width="150"><defs><linearGradient gradientTransform="translate(17.161 9.881) scale(.19606)" gradientUnits="userSpaceOnUse" y2="109.325" x2="678.546" y1=".607" x1=".312" id="a"><stop stop-color="#06F"/><stop stop-color="#2CE0C5" offset="1"/></linearGradient></defs><path fill="url(#a)" d="M41.845 120.604V49.089l8.492 4.318v67.246zm28.991 15.546V65.203l8.492.148v70.8zm-53.614-28.428V42.697l8.541-4.12v67.245zm56.244-34.696l-55.194-26.75 9.932-4.59L77.15 65.277l-3.66 7.749zm55.041-22.975L71.69 17.847 75.082 10l57.58 32.55-4.13 7.501zM75.375 140l-58.153-32.13 4.124-7.508 57.726 31.914zm-51.54-91.207l-6.613-6.096 57.86-32.549 4.039 7.693zM124.28 107.4V45.535l8.493-2.961v64.852zm-48.648.5l-3.904-7.625L126.524 71.6l3.905 7.631-54.798 28.694zm-1.83-33.635l-3.66-7.749 56.127-27.274 3.66 7.748zm1.58 65.71l-3.715-7.73 55.56-31.63 5.552 6.637-57.397 32.698z" stroke-width=".196"/></svg>