<svg width="120" height="134" viewBox="0 0 120 134" fill="none" xmlns="http://www.w3.org/2000/svg">
<path d="M25.5699 114.007V40.2916L34.3889 44.743V114.058L25.5699 114.007ZM55.676 130.032V56.9017L64.495 57.0543V130.032H55.676ZM0 100.729V33.7035L8.86965 29.4556V98.7703L0 100.729ZM58.4066 64.9651L1.0897 37.3918L11.4038 32.6606L62.2333 56.978L58.432 64.9651H58.4066ZM115.565 41.2836L56.563 8.08884L60.0855 0L119.88 33.5509L115.591 41.2836H115.565ZM60.3896 134L0 100.882L4.28277 93.1425L64.2289 126.038L60.3896 134ZM6.86764 39.9863L0 33.7035L60.0855 0.15262L64.2796 8.08248L6.86764 39.9863ZM111.175 100.398V36.6287L119.994 33.5763V100.424L111.175 100.398ZM60.6557 100.913L56.601 93.0534L113.506 63.4961L117.561 71.3624L60.6557 100.939V100.913ZM58.7551 66.2433L54.9538 58.2562L113.24 30.1424L117.041 38.1295L58.7551 66.2433ZM60.396 133.975L56.5377 126.007L114.235 93.4032L120 100.246L60.396 133.949V133.975Z" fill="white"/>
</svg>