<svg width="16" height="14" viewBox="0 0 16 14" fill="none" xmlns="http://www.w3.org/2000/svg">
<path d="M13.6 14.0008H2.4C1.07513 13.9994 0.00146667 12.9358 0 11.6235V9.51025C0 9.36437 0.1194 9.24609 0.266667 9.24609C0.413933 9.24609 0.533333 9.36437 0.533333 9.51025V11.6235C0.5345 12.6442 1.36957 13.4714 2.4 13.4725H13.6C14.6304 13.4714 15.4655 12.6442 15.4667 11.6235V9.51025C15.4667 9.36437 15.5861 9.24609 15.7333 9.24609C15.8806 9.24609 16 9.36437 16 9.51025V11.6235C15.9985 12.9358 14.9249 13.9994 13.6 14.0008Z" fill="#181A1F"/>
<path d="M12.7278 0.0868238C12.7252 0.0839182 12.7244 0.08022 12.7214 0.0773143C12.6454 0.0020639 12.5313 -0.0206202 12.4318 0.0197291H8.2881C8.14083 0.0197291 8.02143 0.138003 8.02143 0.283882C8.02143 0.42976 8.14083 0.548034 8.2881 0.548034H11.8692L3.2777 9.0585C3.17176 9.15983 3.16883 9.32708 3.27116 9.43201C3.37346 9.53695 3.5423 9.53985 3.64823 9.43848C3.65046 9.43637 3.65263 9.43419 3.65476 9.43201L12.2881 0.880338V4.51032C12.2881 4.6562 12.4075 4.77447 12.5548 4.77447C12.702 4.77447 12.8214 4.6562 12.8214 4.51032V0.283882C12.8208 0.207806 12.7866 0.135791 12.7278 0.0868238Z" fill="#181A1F"/>
</svg>
