<svg fill="none" viewBox="0 0 24 24"><defs/><g fill="#2f385e" fill-rule="evenodd" clip-rule="evenodd"><path d="M17.922 8.447a1.305 1.305 0 00-1.824 0l-4.247 4.178-4.246-4.178a1.305 1.305 0 00-1.824 0 1.254 1.254 0 000 1.794l5.158 5.075c.504.495 1.32.495 1.824 0l5.16-5.075a1.254 1.254 0 000-1.794z"/><path d="M11.852 3a1.28 1.28 0 00-1.29 1.269v10.15c0 .7.577 1.269 1.29 1.269a1.28 1.28 0 001.29-1.27V4.269c0-.7-.578-1.268-1.29-1.268zM3 20.115c0-.49.403-.886.9-.886h16.2c.497 0 .9.397.9.886a.893.893 0 01-.9.885H3.9a.893.893 0 01-.9-.885z"/></g></svg>