<svg fill="none" viewBox="0 0 24 24"><defs/><g fill="#2f385e" fill-rule="evenodd" clip-rule="evenodd"><path d="M18.07 10.241a1.305 1.305 0 01-1.823 0L12 6.063l-4.247 4.178a1.305 1.305 0 01-1.824 0 1.254 1.254 0 010-1.794l5.159-5.075a1.304 1.304 0 011.823 0l5.159 5.075a1.254 1.254 0 010 1.794z"/><path d="M12 15.688a1.28 1.28 0 01-1.29-1.27V4.269c0-.7.578-1.268 1.29-1.268.713 0 1.29.568 1.29 1.269v10.15c0 .7-.577 1.269-1.29 1.269zM3 20.115c0-.49.403-.886.9-.886h16.2c.497 0 .9.397.9.886a.893.893 0 01-.9.885H3.9a.893.893 0 01-.9-.885z"/></g></svg>