<svg fill="none" viewBox="0 0 16 16"><defs/><path fill="#2F385E" fill-rule="evenodd" d="M.667 2c0-.368.298-.667.666-.667h4a3.333 3.333 0 013.333 3.334V14a.667.667 0 11-1.333 0A1.333 1.333 0 006 12.667H1.333A.667.667 0 01.667 12V2zm6.666 9.69V4.668a2 2 0 00-2-2H2v8.666h4c.472 0 .931.126 1.333.357z" clip-rule="evenodd"/><path fill="#2F385E" fill-rule="evenodd" d="M8.31 2.31a3.333 3.333 0 012.356-.977h4c.369 0 .667.299.667.667v10a.667.667 0 01-.667.667H10A1.333 1.333 0 008.666 14a.667.667 0 11-1.333 0V4.667c0-.884.351-1.732.976-2.357zm.356 9.38A2.667 2.667 0 0110 11.334h4V2.667h-3.334a2 2 0 00-2 2v7.024z" clip-rule="evenodd"/><path fill="#2F385E" d="M12.046 5.467h-1.424a.684.684 0 01-.48-.195.661.661 0 010-.943.684.684 0 01.48-.195h1.424c.18 0 .352.07.479.195a.66.66 0 010 .943.684.684 0 01-.48.195zM12.046 7.696h-1.424a.684.684 0 01-.48-.195.661.661 0 010-.943.684.684 0 01.48-.195h1.424c.18 0 .352.07.479.195a.66.66 0 010 .943.684.684 0 01-.48.195zM12.046 9.933h-1.424a.684.684 0 01-.48-.195.661.661 0 010-.943.684.684 0 01.48-.195h1.424c.18 0 .352.07.479.195a.66.66 0 010 .943.684.684 0 01-.48.195z"/></svg>