<svg fill="none" viewBox="0 0 24 24"><defs/><path fill="#2F385E" d="M18.364 4.276v15.448c0 .255.203.458.455.458h.907a.455.455 0 00.456-.458V4.276a.455.455 0 00-.456-.458h-.907a.455.455 0 00-.455.458zm-1.819 0A2.272 2.272 0 0118.82 2h.907A2.274 2.274 0 0122 4.276v15.448A2.272 2.272 0 0119.726 22h-.907a2.274 2.274 0 01-2.273-2.276V4.276zM2 9.726a2.271 2.271 0 012.274-2.271h.907a2.275 2.275 0 012.274 2.27V19.73A2.271 2.271 0 015.18 22h-.907A2.275 2.275 0 012 19.73V9.724zm1.818 0v10.003c0 .247.206.453.456.453h.907a.452.452 0 00.455-.453V9.725a.457.457 0 00-.455-.452h-.907a.453.453 0 00-.456.452zm5.455 5.46a2.274 2.274 0 012.273-2.277h.908a2.273 2.273 0 012.273 2.277v4.537A2.274 2.274 0 0112.454 22h-.908a2.27 2.27 0 01-2.273-2.277v-4.537zm1.818 0v4.537a.455.455 0 00.455.459h.908a.456.456 0 00.455-.46v-4.536a.452.452 0 00-.455-.459h-.908a.456.456 0 00-.455.46v-.001z"/></svg>