<svg fill="none" viewBox="0 0 18 18">
    <defs>
        <linearGradient id="paint0_linear" x1="9" x2="28.405" y1="1.8" y2="6.4" gradientUnits="userSpaceOnUse">
            <stop stop-color="#438AF9" />
            <stop offset="1" stop-color="#2D3ED5" />
        </linearGradient>
    </defs>
    <path fill="url(#paint0_linear)" fill-rule="evenodd" d="M6 10V9c0-1.654 1.346-3 3-3h1V2.667A.667.667 0 009.333 2H2.667A.667.667 0 002 2.667v6.666c0 .368.299.667.667.667H6zm0 2H2.667A2.67 2.67 0 010 9.333V2.667A2.67 2.67 0 012.667 0h6.666A2.67 2.67 0 0112 2.667V6h3c1.654 0 3 1.346 3 3v6c0 1.654-1.346 3-3 3H9c-1.654 0-3-1.346-3-3v-3zm2-3c0-.551.449-1 1-1h6c.552 0 1 .449 1 1v6c0 .551-.448 1-1 1H9c-.551 0-1-.449-1-1V9z" clip-rule="evenodd" />
   
</svg>