<svg fill="none" viewBox="0 0 16 16"><defs/><path fill="#2F385E" fill-rule="evenodd" d="M11.83 9.998h-1.533a.769.769 0 01-.766-.766c0-.422.345-.767.766-.767h1.533c.422 0 .767.345.767.767a.769.769 0 01-.767.766zm-4.599 0H4.165a.769.769 0 01-.766-.766c0-.422.345-.767.766-.767h3.066c.422 0 .767.345.767.767a.769.769 0 01-.767.766zm6.899.767a.767.767 0 01-.767.766H2.633a.767.767 0 01-.767-.766V6.932H14.13v3.833zM1.866 4.633c0-.423.343-.767.766-.767h10.731c.424 0 .767.344.767.767v.766H1.866v-.766zm11.498-2.3H2.633a2.302 2.302 0 00-2.3 2.3v6.132c0 1.268 1.032 2.3 2.3 2.3h10.73c1.268 0 2.3-1.032 2.3-2.3V4.633c0-1.268-1.032-2.3-2.3-2.3z" clip-rule="evenodd"/></svg>