<svg fill="none" viewBox="0 0 24 24"><defs/><path fill="#2F385E" d="M20.178 16.326v2.17a2.269 2.269 0 01-2.27 2.273H6.088a2.27 2.27 0 01-2.27-2.273v-2.17l-1.765-7.83C1.747 6.894 3.061 6.08 4.341 7.037l3.355 2.508c.165.122.296.091.386-.088l2.48-4.941c.68-1.355 2.193-1.354 2.872 0l2.48 4.94c.091.18.221.211.386.089l3.355-2.508c1.28-.956 2.595-.145 2.288 1.459l-1.765 7.83zm-14.724-1.01h13.088l1.404-6.227L17.388 11c-1.07.799-2.5.465-3.099-.729L12 5.706l-2.292 4.566c-.599 1.192-2.03 1.528-3.099.729L4.051 9.089l1.403 6.226zm.182 3.18a.453.453 0 00.453.455h11.819a.451.451 0 00.452-.455v-1.363H5.636v1.363z"/></svg>