<svg xmlns="http://www.w3.org/2000/svg" fill="none" height="24" width="24"><defs><linearGradient gradientTransform="matrix(1.24577 0 0 1.24577 -2.95 -2.95)" gradientUnits="userSpaceOnUse" y2="8.951" x2="30.485" y1="4.8" x1="12" id="a"><stop stop-color="#438AF9"/><stop stop-color="#2D3ED5" offset="1"/></linearGradient></defs><path fill="url(#a)" d="M15.54 20.72v-4.983h4.721l.002 4.983zm4.721-7.474h-4.72c-1.302 0-2.36 1.117-2.36 2.491v4.983c0 1.374 1.058 2.492 2.36 2.492h4.72c1.302 0 2.36-1.118 2.36-2.492v-4.983c0-1.374-1.058-2.491-2.36-2.491zM3.74 20.72v-4.983h4.72l.002 4.983zm4.72-7.474H3.74c-1.302 0-2.36 1.117-2.36 2.491v4.983c0 1.374 1.058 2.492 2.36 2.492h4.72c1.302 0 2.36-1.118 2.36-2.492v-4.983c0-1.374-1.058-2.491-2.36-2.491zm7.082-4.983V3.28h4.72l.002 4.983zM20.26.788h-4.72c-1.302 0-2.36 1.118-2.36 2.492v4.983c0 1.374 1.058 2.491 2.36 2.491h4.72c1.302 0 2.36-1.117 2.36-2.491V3.28c0-1.374-1.058-2.492-2.36-2.492zM3.74 8.263V3.28h4.72l.002 4.983zM8.459.788H3.74c-1.302 0-2.36 1.118-2.36 2.492v4.983c0 1.374 1.058 2.491 2.36 2.491h4.72c1.302 0 2.36-1.117 2.36-2.491V3.28c0-1.374-1.058-2.492-2.36-2.492z" clip-rule="evenodd" fill-rule="evenodd"/></svg>