<svg width="170" height="170" viewBox="0 0 170 170" fill="none" xmlns="http://www.w3.org/2000/svg">
<g clip-path="url(#clip0)">
<path fill-rule="evenodd" clip-rule="evenodd" d="M51.6577 115.408C54.4239 112.642 58.9088 112.642 61.675 115.408L84.9997 138.733L108.324 115.408C111.091 112.642 115.575 112.642 118.342 115.408C121.108 118.174 121.108 122.659 118.342 125.425L90.0083 153.759C87.2421 156.525 82.7572 156.525 79.991 153.759L51.6577 125.425C48.8915 122.659 48.8915 118.174 51.6577 115.408Z" fill="url(#paint0_linear)"/>
<path fill-rule="evenodd" clip-rule="evenodd" d="M85.0003 77.9167C88.9123 77.9167 92.0837 81.0881 92.0837 85.0001V148.75C92.0837 152.662 88.9123 155.833 85.0003 155.833C81.0883 155.833 77.917 152.662 77.917 148.75V85.0001C77.917 81.0881 81.0883 77.9167 85.0003 77.9167Z" fill="#159FE4"/>
<path fill-rule="evenodd" clip-rule="evenodd" d="M61.3954 14.1254C71.0322 13.7789 80.622 15.623 89.4429 19.519C98.2638 23.4149 106.086 29.2612 112.32 36.6177C117.353 42.5561 121.245 49.3536 123.82 56.6668L127.494 56.6668C136.527 56.6609 145.331 59.5326 152.621 64.8655C159.912 70.1995 165.314 77.7181 168.043 86.3303C170.771 94.9424 170.685 104.2 167.795 112.76C164.906 121.319 159.364 128.735 151.974 133.932C148.774 136.182 144.356 135.412 142.106 132.212C139.856 129.012 140.626 124.594 143.826 122.343C148.752 118.879 152.447 113.935 154.373 108.229C156.299 102.522 156.357 96.3505 154.538 90.6091C152.719 84.8677 149.117 79.8553 144.257 76.2993C139.396 72.7433 133.528 70.8287 127.506 70.8334H118.575C115.341 70.8334 112.518 68.6431 111.714 65.5106C109.85 58.2459 106.362 51.4987 101.513 45.7769C96.6639 40.0552 90.58 35.5081 83.7193 32.4779C76.8586 29.4477 69.3998 28.0134 61.9046 28.2829C54.4093 28.5525 47.0729 30.5189 40.4476 34.034C33.8222 37.5492 28.0807 42.5216 23.6551 48.5768C19.2296 54.6321 16.2354 61.6124 14.8979 68.9923C13.5605 76.3722 13.9146 83.9593 15.9337 91.1825C17.9528 98.4057 21.5842 105.077 26.5546 110.693C29.1471 113.623 28.8738 118.1 25.9442 120.692C23.0146 123.285 18.538 123.011 15.9455 120.082C9.55501 112.86 4.88604 104.283 2.29006 94.9963C-0.305915 85.7093 -0.761251 75.9544 0.958333 66.466C2.67792 56.9776 6.52761 48.0029 12.2176 40.2176C17.9076 32.4323 25.2896 26.0392 33.8078 21.5197C42.3261 17.0002 51.7587 14.472 61.3954 14.1254Z" fill="url(#paint1_linear)"/>
</g>
<defs>
<linearGradient id="paint0_linear" x1="49.583" y1="113.333" x2="126.263" y2="136.38" gradientUnits="userSpaceOnUse">
<stop stop-color="#589BFF"/>
<stop offset="1" stop-color="#0066FF"/>
</linearGradient>
<linearGradient id="paint1_linear" x1="-0.0634766" y1="14.0842" x2="188.604" y2="61.8569" gradientUnits="userSpaceOnUse">
<stop stop-color="#589BFF"/>
<stop offset="0.0001" stop-color="#589BFF"/>
<stop offset="1" stop-color="#4E5FFF"/>
</linearGradient>
<clipPath id="clip0">
<rect width="170" height="170" fill="white"/>
</clipPath>
</defs>
</svg>
