<svg fill="none" viewBox="0 0 16 16"><defs/><path fill="#2F385E" fill-rule="evenodd" d="M12.667 12H3.334a.667.667 0 01-.667-.667v-6.5l4.933 3.7a.663.663 0 00.8 0l4.934-3.7v6.5c0 .368-.3.667-.667.667zm-.445-8L8 7.167 3.778 4h8.444zm.445-1.333H3.333c-1.102 0-2 .897-2 2v6.666c0 1.103.898 2 2 2h9.334c1.103 0 2-.897 2-2V4.667c0-1.103-.897-2-2-2z" clip-rule="evenodd"/><mask id="a" width="14" height="12" x="1" y="2" maskUnits="userSpaceOnUse"><path fill="#fff" fill-rule="evenodd" d="M12.667 12H3.334a.667.667 0 01-.667-.667v-6.5l4.933 3.7a.663.663 0 00.8 0l4.934-3.7v6.5c0 .368-.3.667-.667.667zm-.445-8L8 7.167 3.778 4h8.444zm.445-1.333H3.333c-1.102 0-2 .897-2 2v6.666c0 1.103.898 2 2 2h9.334c1.103 0 2-.897 2-2V4.667c0-1.103-.897-2-2-2z" clip-rule="evenodd"/></mask><g mask="url(#a)"><path fill="#2F385E" d="M0 0h16v16H0z"/></g></svg>