<svg fill="none" viewBox="0 0 16 16"><defs/><path fill="#2F385E" stroke="#2F385E" stroke-width=".15" d="M1.547 4.876a.622.622 0 00.622-.622V2.64c0-.26.212-.472.472-.472h1.668a.622.622 0 100-1.244H2.64c-.946 0-1.716.77-1.716 1.716v1.613c0 .343.278.622.622.622zM6.048 9.175h0a.622.622 0 01.505-.72l-.505.72zm0 0c.078.452.3.865.627 1.162.36.329.819.502 1.325.502M6.048 9.175L8 10.838m0 0c1.004 0 1.828-.71 1.957-1.69M8 10.839l1.957-1.69m0 0a.622.622 0 00-.536-.696m.536.697l-.536-.697m0 0a.622.622 0 00-.698.536m.698-.536l-.698.536m0 0A.7.7 0 018 9.595m.723-.607L8 9.595m0 0a.693.693 0 01-.513-.2m.513.2l-.513-.2m0 0a.82.82 0 01-.214-.434l.214.434zm-.214-.434a.622.622 0 00-.72-.505l.72.505zM4.309 13.831H2.64a.472.472 0 01-.472-.472v-1.613a.622.622 0 10-1.244 0v1.613c0 .946.77 1.716 1.716 1.716h1.668a.622.622 0 100-1.244z"/><path fill="#2F385E" stroke="#2F385E" stroke-width=".15" d="M12.348 10.307l.067.036a.622.622 0 01-.841.257s0 0 0 0l.035-.066.74-.227zm0 0l.067.036A5.003 5.003 0 008 3.003 5.002 5.002 0 003.003 8a5.003 5.003 0 007.302 4.434.622.622 0 00-.574-1.103l2.617-1.024zM14.453 11.124a.622.622 0 00-.622.622v1.613c0 .26-.211.472-.472.472h-1.668a.622.622 0 000 1.244h1.668c.946 0 1.716-.77 1.716-1.716v-1.613a.622.622 0 00-.622-.622zM13.36.925H11.69a.622.622 0 100 1.244h1.668c.26 0 .472.212.472.472v1.613a.622.622 0 001.244 0V2.64c0-.946-.77-1.716-1.716-1.716z"/><path fill="#2F385E" stroke="#2F385E" stroke-width=".15" d="M9.65 5.82A1.17 1.17 0 008.48 6.988a.622.622 0 001.169.297.622.622 0 001.169-.297 1.17 1.17 0 00-1.17-1.168zM6.916 7.61a.622.622 0 00.621-.622 1.17 1.17 0 00-2.337 0 .622.622 0 001.169.297c.105.194.31.325.547.325z"/></svg>