<svg width="160" height="160" viewBox="0 0 160 160" fill="none" xmlns="http://www.w3.org/2000/svg">
<g clip-path="url(#clip0_880_12756)">
<path d="M125.362 97.6648C125.362 94.3116 123.873 91.3016 121.525 89.2541C122.384 87.3263 122.832 85.2301 122.832 83.0879V60.7285C122.832 42.0841 107.666 26.916 89.0231 26.916H70.6884C66.0684 26.916 61.6044 28.582 58.1188 31.607C54.7872 34.4982 52.5528 38.4432 51.7938 42.7535H51.4291C43.5666 42.7535 37.1697 49.1501 37.1697 57.0129V61.4285C37.1697 62.7229 38.2188 63.7723 39.5134 63.7723C40.8081 63.7723 41.8572 62.7229 41.8572 61.4285V57.0129C41.8572 51.7351 46.1509 47.441 51.4291 47.441H52.2791C54.3266 47.441 56.0394 45.9623 56.3528 43.9188C57.4122 36.8979 63.5747 31.6035 70.6884 31.6035H89.0228C105.081 31.6035 118.144 44.6691 118.144 60.7285V83.0879C118.144 84.432 117.885 85.7466 117.396 86.9726C116.383 86.6695 115.311 86.5041 114.201 86.5041H112.37V78.3413C112.37 74.6735 109.638 71.5926 106.016 71.1745C91.9681 69.5538 79.0141 64.4963 68.5547 56.5488C67.655 55.8651 66.5122 55.636 65.4178 55.9191C64.3244 56.2032 63.4369 56.9601 62.9834 57.9951C60.8384 62.8895 56.9475 66.732 52.0275 68.8145C49.3575 69.9448 47.6322 72.5516 47.6322 75.4554V86.5038H45.8009C44.6909 86.5038 43.6191 86.6688 42.6063 86.9723C42.1169 85.7463 41.8575 84.4316 41.8575 83.0876V72.3657C41.8575 71.0713 40.8084 70.022 39.5138 70.022C38.2191 70.022 37.17 71.0713 37.17 72.3657V83.0876C37.17 85.2298 37.6184 87.326 38.4772 89.2538C36.1288 91.3013 34.6406 94.3113 34.6406 97.6645C34.6406 103.819 39.6472 108.825 45.8013 108.825H47.6325V114.769C47.6325 124.868 55.8481 133.084 65.9466 133.084H94.0556C97.9747 133.084 101.713 131.863 104.867 129.553C105.912 128.789 106.138 127.322 105.373 126.278C104.608 125.233 103.142 125.007 102.098 125.771C99.7528 127.489 96.9722 128.396 94.0559 128.396H65.9469C58.4331 128.396 52.3203 122.283 52.3203 114.769V75.4557C52.3203 74.4385 52.9231 73.526 53.8556 73.1313C59.4878 70.747 64.0194 66.4804 66.7337 61.0382C77.6784 69.0588 91.0456 74.1663 105.48 75.8313C106.736 75.976 107.683 77.0554 107.683 78.3413V114.769C107.683 115.919 107.54 117.06 107.258 118.161C106.937 119.415 107.693 120.692 108.947 121.013C110.203 121.334 111.478 120.577 111.799 119.324C112.178 117.844 112.37 116.311 112.37 114.769V108.825H114.202C120.355 108.825 125.362 103.819 125.362 97.6648ZM45.8009 104.138C42.2316 104.138 39.3278 101.234 39.3278 97.6648C39.3278 94.0954 42.2316 91.1917 45.8009 91.1917H47.6322V104.138H45.8009ZM112.37 91.1917H114.201C117.77 91.1917 120.674 94.0954 120.674 97.6648C120.674 101.234 117.77 104.138 114.201 104.138H112.37V91.1917Z" fill="#738390"/>
<path d="M63.8613 87.6348V92.6032C63.8613 93.8976 64.9104 94.947 66.2051 94.947C67.4998 94.947 68.5488 93.8976 68.5488 92.6032V87.6348C68.5488 86.3404 67.4998 85.291 66.2051 85.291C64.9104 85.291 63.8613 86.3404 63.8613 87.6348Z" fill="#738390"/>
<path d="M91.4512 87.6348V92.6032C91.4512 93.8976 92.5002 94.947 93.7949 94.947C95.0896 94.947 96.1387 93.8976 96.1387 92.6032V87.6348C96.1387 86.3404 95.0896 85.291 93.7949 85.291C92.5002 85.291 91.4512 86.3404 91.4512 87.6348Z" fill="#738390"/>
<path d="M2 40.5V8C2 4.68629 4.68629 2 8 2H40.5" stroke="#4E94D7" stroke-width="5" stroke-linecap="round" stroke-linejoin="round"/>
<path d="M40.5 158H8C4.68629 158 2 155.314 2 152L2 119.5" stroke="#4E94D7" stroke-width="5" stroke-linecap="round" stroke-linejoin="round"/>
<path d="M157.5 119.5V152C157.5 155.314 154.814 158 151.5 158H119" stroke="#4E94D7" stroke-width="5" stroke-linecap="round" stroke-linejoin="round"/>
<path d="M119 2.5L151.5 2.5C154.814 2.5 157.5 5.18629 157.5 8.5V41" stroke="#4E94D7" stroke-width="5" stroke-linecap="round" stroke-linejoin="round"/>
</g>
<defs>
<clipPath id="clip0_880_12756">
<rect width="160" height="160" fill="white"/>
</clipPath>
</defs>
</svg>
