<svg fill="none" viewBox="0 0 16 16"><defs/><path fill="#2f385c" stroke="#2F385E" stroke-width=".15" d="M2.93 3.02h0a.544.544 0 00-.12.76h0a.544.544 0 00.76.12h0c1.503-1.091 3.008-1.616 4.497-1.602 1.488.014 2.966.565 4.414 1.639a.544.544 0 10.647-.874C11.491 1.85 9.786 1.223 8.066 1.21c-1.721-.013-3.45.586-5.135 1.81z"/><path fill="#2f385c" stroke="#2F385E" stroke-width=".15" d="M2.448 6.952h0a.544.544 0 01-.15-.754c.553-.83 1.476-1.577 2.509-2.116 1.032-.54 2.182-.876 3.193-.876 1.042 0 2.199.28 3.231.796s1.945 1.272 2.491 2.228a.544.544 0 01-.944.54c-.457-.8-1.24-1.419-2.12-1.839-.878-.42-1.844-.637-2.658-.637-.828 0-1.805.292-2.69.754-.884.463-1.666 1.09-2.108 1.754l-.754.15zm0 0c.25.167.588.1.754-.15l-.754.15z"/><path fill="#2f385c" stroke="#2f385e" stroke-width=".15" d="M7.457 14.502c-.081.122-.35.427-.35.427-.342.267-.83-.294-1.068-.59l-.02-.023a11.511 11.511 0 01-.717-.875c-.463-.643-.846-1.424-.846-2.441 0-2.087 1.585-3.794 3.544-3.794S11.544 8.913 11.544 11v.5a.544.544 0 11-1.088 0V11c0-1.499-1.108-2.706-2.456-2.706C6.652 8.294 5.544 9.5 5.544 11c0 .773.31 1.37.713 1.905.185.246.389.477.591.707l.057.065s.745.668.552.825z"/><path fill="#2f385c" stroke="#2f385e" stroke-width=".137" d="M3.364 11.756h-.432c-.207-.166-.185-.416-.174-.882.128-.817-.073-3.026 2.524-4.9.855-.54 1.808-.876 2.646-.876.863 0 1.821.28 2.677.796.855.516 1.894 1.599 2.315 2.57.692 1.595.627 3.767.235 4.646-.315.707-1.877 1.287-2.963 1.003-1.505-.393-2.328-3.26-2.432-3.586-.315-.982.782-1.157.996-.188.076.344 1.1 4.183 3.365 2.584.557-.394.72-2.527-.27-4.423-.41-.784-.993-1.257-1.72-1.677-.729-.42-1.53-.637-2.203-.637-.686 0-1.496.292-2.229.754-1.444 1.022-2.041 2.807-2.115 4.576z"/></svg>