<svg width="160" height="160" viewBox="0 0 160 160" fill="none" xmlns="http://www.w3.org/2000/svg">
<g clip-path="url(#clip0_880_12713)">
<path d="M106.913 23.3991C99.0445 19.8186 89.9925 18 80.0055 18C69.9459 18 60.8889 19.8186 53.0924 23.4044C51.8008 23.9985 51.2324 25.533 51.8264 26.8299C52.4259 28.1215 53.9499 28.6899 55.2519 28.0958C62.3715 24.8253 70.7004 23.1668 80.0055 23.1668C89.2485 23.1668 97.5774 24.8253 104.769 28.1009C105.115 28.261 105.482 28.3334 105.839 28.3334C106.82 28.3334 107.761 27.7703 108.195 26.8195C108.784 25.5226 108.21 23.9881 106.913 23.3991Z" fill="#738390"/>
<path d="M118.016 44.6039C107.543 33.9605 94.3942 28.334 79.9947 28.334C65.6521 28.334 52.5132 33.9605 42.0042 44.5986C41.0018 45.6165 41.0122 47.2542 42.0248 48.2566C43.0427 49.259 44.6753 49.2435 45.6777 48.236C55.2 38.5952 67.0626 33.5008 79.9947 33.5008C92.9786 33.5008 104.857 38.5952 114.332 48.2309C114.839 48.7424 115.505 49.0008 116.172 49.0008C116.823 49.0008 117.479 48.7528 117.985 48.2568C119.003 47.2544 119.019 45.6218 118.016 44.6039Z" fill="#738390"/>
<path d="M79.9953 38.666C76.3114 38.666 72.6534 39.1206 69.1194 40.0196C67.7348 40.371 66.8978 41.7762 67.249 43.161C67.6004 44.5456 69.016 45.3724 70.3904 45.0261C73.5059 44.2356 76.7403 43.8326 79.9953 43.8326C101.365 43.8326 118.745 61.2132 118.745 82.5826C118.745 84.0086 119.903 85.166 121.329 85.166C122.755 85.166 123.912 84.0086 123.912 82.5826C123.912 58.3665 104.212 38.666 79.9953 38.666Z" fill="#738390"/>
<path d="M61.4772 45.5283C60.7642 44.3038 59.1882 43.8853 57.9432 44.6034C54.6467 46.5305 51.5831 48.9124 48.8497 51.6818C40.8053 59.8142 36.2742 70.7727 36.0882 82.5474C36.0676 83.9734 37.2042 85.1463 38.6353 85.1669C38.6457 85.1669 38.6612 85.1669 38.6767 85.1669C40.0821 85.1669 41.2342 84.0405 41.2548 82.6249C41.4202 72.1883 45.4192 62.4904 52.5232 55.3088C54.9412 52.8598 57.6433 50.7622 60.5522 49.0623C61.7818 48.3443 62.1952 46.7633 61.4772 45.5283Z" fill="#738390"/>
<path d="M105.312 60.5371C98.9153 53.2056 89.6877 49 79.9949 49C70.9843 49 62.5368 52.534 56.2024 58.9459C49.8888 65.3215 46.4168 73.9448 46.4168 83.3533C46.4323 88.9128 44.6963 95.5777 41.5859 101.979L40.134 104.563C39.4365 105.808 39.8756 107.379 41.1209 108.081C41.5239 108.309 41.9579 108.417 42.3868 108.417C43.2909 108.417 44.1693 107.942 44.6394 107.1L46.1635 104.382C49.7336 97.035 51.604 89.7604 51.5834 83.2194C51.5834 75.3093 54.5233 67.9829 59.8708 62.5785C65.2338 57.1535 72.3743 54.1671 79.9949 54.1671C88.1944 54.1671 96.0064 57.727 101.416 63.9372C102.351 65.0117 103.989 65.1202 105.064 64.1852C106.138 63.2445 106.247 61.6119 105.312 60.5371Z" fill="#738390"/>
<path d="M118.383 112.364L115.469 102.832C113.831 95.3554 113.692 88.2201 113.604 83.9525L113.578 82.5834C113.578 78.7549 112.932 74.9935 111.661 71.4028C111.186 70.0594 109.724 69.3568 108.365 69.8322C107.021 70.3077 106.319 71.7802 106.794 73.1287C107.869 76.1616 108.411 79.3442 108.411 82.6507L108.442 84.0562C108.535 88.5097 108.68 95.9652 110.478 104.134L113.433 113.868C113.769 114.984 114.797 115.697 115.908 115.697C116.156 115.697 116.409 115.661 116.663 115.588C118.027 115.17 118.796 113.733 118.383 112.364Z" fill="#738390"/>
<path d="M110.845 124.3L108.443 116.607C104.18 103.297 103.385 88.3345 103.245 82.584C103.245 69.7655 92.8136 59.334 79.9951 59.334C67.1766 59.334 56.7502 69.9256 56.7502 83.0335C56.7606 85.7511 56.2593 100.109 45.3473 115.847C44.5309 117.02 44.8254 118.632 45.9932 119.443C47.1608 120.254 48.7781 119.965 49.5892 118.797C61.0902 102.217 61.9323 87.2185 61.9168 82.9507C61.9168 72.7776 70.0284 64.5057 79.9949 64.5057C89.9665 64.5057 98.0783 72.6172 98.0783 82.6511C98.2643 90.1531 99.2202 104.744 103.519 118.172L105.906 125.834C106.252 126.94 107.27 127.648 108.375 127.648C108.628 127.648 108.887 127.611 109.145 127.534C110.509 127.105 111.269 125.659 110.845 124.3Z" fill="#738390"/>
<path d="M92.9115 82.5826C92.9115 75.463 87.1145 69.666 79.9949 69.666C72.8753 69.666 67.0783 75.463 67.0783 82.6809C67.1093 83.5334 67.6828 103.828 51.2734 125.182C50.4054 126.313 50.6173 127.936 51.7488 128.804C52.8854 129.677 54.5027 129.455 55.3707 128.328C72.9012 105.512 72.2708 83.4145 72.2398 82.5828C72.2398 78.3099 75.7169 74.8328 79.9898 74.8328C84.2627 74.8328 87.7398 78.3099 87.7449 82.6398C87.8173 85.5332 87.8328 111.635 67.662 137.84C66.794 138.972 67.0006 140.594 68.1321 141.462C68.6075 141.824 69.1602 142 69.708 142C70.483 142 71.2476 141.654 71.754 140.992C93.0457 113.34 92.9837 85.5947 92.9115 82.5826Z" fill="#738390"/>
<path d="M82.5684 82.4693C82.5013 81.0484 81.3853 79.9169 79.8765 80.0048C78.4556 80.0668 77.35 81.2707 77.4069 82.6967C77.4069 82.7328 77.5515 86.5148 76.5905 92.4927C76.3684 93.9032 77.3294 95.2311 78.7346 95.4583C78.8741 95.4789 79.0136 95.4893 79.148 95.4893C80.3931 95.4893 81.4936 94.5852 81.6951 93.3193C82.7493 86.7628 82.5788 82.6398 82.5684 82.4693Z" fill="#738390"/>
<path d="M77.5 100.848C76.1256 100.44 74.6945 101.225 74.2864 102.589C71.0574 113.496 65.6839 123.695 58.3265 132.912C57.4379 134.028 57.6186 135.651 58.7346 136.544C59.21 136.927 59.7782 137.108 60.3466 137.108C61.1061 137.108 61.8552 136.777 62.3667 136.136C70.1426 126.402 75.8207 115.609 79.2462 104.062C79.6494 102.693 78.8694 101.251 77.5 100.848Z" fill="#738390"/>
<path d="M102.537 131.801L99.4218 121.907C98.1818 118.197 97.0244 114.276 97.0193 114.26C96.7093 113.211 95.7793 112.473 94.6892 112.411C93.5732 112.333 92.5863 112.974 92.1627 113.981C92.1058 114.116 86.3502 127.647 79.7523 138.032C78.9877 139.236 79.3442 140.833 80.5479 141.597C80.9768 141.871 81.4573 142 81.9325 142C82.7901 142 83.622 141.577 84.1129 140.802C88.1068 134.514 91.7338 127.286 94.1 122.258C94.2344 122.672 94.3739 123.09 94.5134 123.504L97.6083 133.351C98.0372 134.71 99.4734 135.475 100.848 135.041C102.206 134.612 102.966 133.165 102.537 131.801Z" fill="#738390"/>
</g>
<defs>
<clipPath id="clip0_880_12713">
<rect width="124" height="124" fill="white" transform="translate(18 18)"/>
</clipPath>
</defs>
</svg>
