<svg width="12" height="13" viewBox="0 0 12 13" fill="none" xmlns="http://www.w3.org/2000/svg">
<path d="M6.576 7.744H10.016C9.92 8.11733 9.776 8.46933 9.584 8.8C9.392 9.13067 9.152 9.424 8.864 9.68C8.576 9.936 8.23467 10.1333 7.84 10.272C7.44533 10.4107 6.99733 10.48 6.496 10.48C5.76 10.48 5.09867 10.3093 4.512 9.968C3.92533 9.62667 3.456 9.152 3.104 8.544C2.76267 7.92533 2.592 7.21067 2.592 6.4C2.592 5.57867 2.768 4.86933 3.12 4.272C3.472 3.664 3.94133 3.19467 4.528 2.864C5.11467 2.52267 5.77067 2.352 6.496 2.352C7.27467 2.352 7.936 2.512 8.48 2.832C9.03467 3.152 9.46667 3.57867 9.776 4.112L11.312 3.088C10.9813 2.56533 10.576 2.12267 10.096 1.76C9.62667 1.38667 9.09333 1.104 8.496 0.912C7.89867 0.709333 7.232 0.608 6.496 0.608C5.65333 0.608 4.86933 0.746666 4.144 1.024C3.42933 1.30133 2.80533 1.70133 2.272 2.224C1.74933 2.736 1.33867 3.34933 1.04 4.064C0.752 4.768 0.608 5.54667 0.608 6.4C0.608 7.25333 0.752 8.03733 1.04 8.752C1.328 9.46667 1.73333 10.0853 2.256 10.608C2.78933 11.1307 3.41333 11.536 4.128 11.824C4.84267 12.1013 5.62133 12.24 6.464 12.24C7.34933 12.24 8.13867 12.08 8.832 11.76C9.536 11.4293 10.1227 10.9813 10.592 10.416C11.0613 9.85067 11.4133 9.20533 11.648 8.48C11.8827 7.744 11.9893 6.96533 11.968 6.144H6.576V7.744Z" fill="#4E94D7"/>
</svg>
