<svg fill="none" viewBox="0 0 16 16"><defs/><path fill="#2F385E" fill-rule="evenodd" d="M9.745 13.035a8.748 8.748 0 001.572-4.368h1.97a5.342 5.342 0 01-3.542 4.368zM2.713 8.667h1.994a8.601 8.601 0 001.564 4.374 5.343 5.343 0 01-3.558-4.374zm3.579-5.714a8.763 8.763 0 00-1.582 4.38H2.713a5.342 5.342 0 013.579-4.38zm-.24 4.38c.205-2.181 1.32-3.7 1.965-4.402a7.46 7.46 0 011.956 4.402h-3.92zm.001 1.334h3.922c-.204 2.184-1.323 3.703-1.967 4.405a7.346 7.346 0 01-1.955-4.405zm7.234-1.334h-1.968a8.594 8.594 0 00-1.552-4.36 5.34 5.34 0 013.52 4.36zm1.38.667c0-3.67-2.98-6.655-6.648-6.665l-.009-.001H8A6.675 6.675 0 001.333 8 6.674 6.674 0 008 14.667l.01-.001H8.02A6.673 6.673 0 0014.667 8z" clip-rule="evenodd"/><mask id="a" width="14" height="14" x="1" y="1" maskUnits="userSpaceOnUse"><path fill="#fff" fill-rule="evenodd" d="M9.745 13.035a8.748 8.748 0 001.572-4.368h1.97a5.342 5.342 0 01-3.542 4.368zM2.713 8.667h1.994a8.601 8.601 0 001.564 4.374 5.343 5.343 0 01-3.558-4.374zm3.579-5.714a8.763 8.763 0 00-1.582 4.38H2.713a5.342 5.342 0 013.579-4.38zm-.24 4.38c.205-2.181 1.32-3.7 1.965-4.402a7.46 7.46 0 011.956 4.402h-3.92zm.001 1.334h3.922c-.204 2.184-1.323 3.703-1.967 4.405a7.346 7.346 0 01-1.955-4.405zm7.234-1.334h-1.968a8.594 8.594 0 00-1.552-4.36 5.34 5.34 0 013.52 4.36zm1.38.667c0-3.67-2.98-6.655-6.648-6.665l-.009-.001H8A6.675 6.675 0 001.333 8 6.674 6.674 0 008 14.667l.01-.001H8.02A6.673 6.673 0 0014.667 8z" clip-rule="evenodd"/></mask><g mask="url(#a)"><path fill="#2F385E" d="M0 0h16v16H0z"/></g></svg>