<svg fill="none" viewBox="0 0 16 16"><defs/><path fill="#2F385E" fill-rule="evenodd" d="M8.881 2.483a.716.716 0 11-1.433 0V1.05a.716.716 0 111.433 0v1.433zm0 7.494c0-.255.137-.492.36-.62a2.147 2.147 0 00-1.076-4.008A2.147 2.147 0 007.09 9.356a.718.718 0 01.358.621v3.253h1.433V9.977zM4.582 7.498a3.587 3.587 0 013.583-3.582 3.587 3.587 0 013.582 3.582c0 1.132-.54 2.194-1.433 2.863v2.87c0 .79-.642 1.432-1.433 1.432H7.448c-.79 0-1.433-.642-1.433-1.433v-2.869a3.586 3.586 0 01-1.433-2.863zm10.032-.716H13.18a.716.716 0 100 1.433h1.433a.716.716 0 100-1.433zm-12.898 0H3.15a.716.716 0 110 1.433H1.716a.716.716 0 110-1.433zm3.34-3.283l-1.032-.996a.717.717 0 00-.996 1.032l1.031.995a.715.715 0 001.013-.018.716.716 0 00-.017-1.013zm7.25-.995a.717.717 0 01.995 1.03l-1.031.996a.714.714 0 01-1.012-.018.715.715 0 01.017-1.012l1.03-.996z" clip-rule="evenodd"/></svg>