<svg fill="none" viewBox="0 0 16 16"><defs/><path fill="#2F385E" stroke="#2F385E" stroke-width=".2" d="M15.1 1.408V4.883a.51.51 0 01-.51.51h-.742l-.208 1.048a.51.51 0 01-.4.4m1.86-5.433l-1.88 5.336m1.88-5.336A.51.51 0 0014.59.9h-2.32a.51.51 0 00-.361.15L6.87 6.086m8.229-4.68L6.87 6.088m6.368.755l-.02-.098m.02.098h0l-.02-.098m.02.098l-1.116.223m1.097-.321l-1.182.236m.085.085L12.136 7l-.098-.02m.085.085l-.224 1.117a.51.51 0 01-.4.4l-.02-.098m.644-1.419l-.066.013-.02-.098m0 0l-.558 1.504m0 0l-1.328.266-.351.35A4.512 4.512 0 018.7 13.68a4.518 4.518 0 01-6.381 0 4.518 4.518 0 010-6.381A4.512 4.512 0 016.9 6.2l4.58 2.284zm0 0l.02.098-1.299.26-.287.287a4.612 4.612 0 01-1.141 4.622 4.617 4.617 0 01-6.523 0 4.618 4.618 0 010-6.523A4.611 4.611 0 016.87 6.087m4.608 2.397L6.872 6.087M9.15 7.572l4.93-4.93v1.731h-.65a.51.51 0 00-.5.41h0l-.223 1.125-1.117.223.02.098-.02-.098a.51.51 0 00-.4.4l-.224 1.117-1.116.224.02.098-.02-.098a.51.51 0 00-.261.14s0 0 0 0l-.622.621a.51.51 0 00-.115.547 3.592 3.592 0 01-.8 3.85c-1.401 1.4-3.68 1.4-5.08 0-1.401-1.4-1.401-3.68 0-5.08a3.592 3.592 0 013.849-.801h0a.51.51 0 00.547-.115L12.48 1.92h.877l-4.93 4.93a.51.51 0 10.721.722zm5.95-6.169s0 0 0 0h0z"/><path fill="#2F385E" stroke="#2F385E" stroke-width=".2" d="M4.57 11.87s0 0 0 0a.31.31 0 01-.44 0l.51-.51c.16.16.16.42 0 .58l-.07-.07zm0 0a.31.31 0 00-.44-.44m.44.44l-.44-.44m0 0a.31.31 0 000 .44v-.44zm1.161-.72a1.332 1.332 0 00-1.882 0l1.811 1.81c.48-.48.48-1.26 0-1.74l.071-.07s0 0 0 0zM3.41 12.59a1.332 1.332 0 001.882 0l-1.811-.07-.07.07s0 0 0 0z"/></svg>