<svg width="200" height="60" viewBox="0 0 200 60" fill="none" xmlns="http://www.w3.org/2000/svg">
<path d="M200 59.8214C200 59.8214 155.875 11.6323 153.026 8.78431C150.178 5.93635 146.854 3.72997 143.146 2.22644C139.568 0.775649 135.789 0.0398867 131.914 0.0398867C128.038 0.0398867 124.259 0.775649 120.681 2.22644C116.973 3.72997 113.649 5.93635 110.801 8.78431L110.706 8.87873L103.717 16.4984L112.639 25.0725L119.636 17.4444C126.462 10.7142 137.49 10.7433 144.279 17.5314C147.581 20.8339 149.4 25.2248 149.4 29.8952C149.4 34.5655 147.581 38.9564 144.279 42.2589C137.49 49.0471 126.462 49.0762 119.636 42.3459L89.0279 8.9772L88.9377 8.87873L88.8433 8.78431C85.9951 5.93635 82.6709 3.72997 78.9629 2.22644C75.3847 0.775649 71.6055 0.0398867 67.7305 0.0398867C63.8555 0.0398867 60.0763 0.775649 56.4981 2.22644C52.7903 3.72997 49.4661 5.93635 46.6177 8.78431C43.7694 11.6323 41.5628 14.9561 40.0592 18.6638C39.3932 20.3059 38.8778 21.9906 38.5152 23.7073L16.7871 0H0C0 0 43.7692 48.1581 46.6177 51.006C49.4659 53.854 52.7901 56.0604 56.4981 57.5639C60.0763 59.0147 63.8555 59.7505 67.7305 59.7505C71.6055 59.7505 75.3847 59.0147 78.9629 57.5639C82.6707 56.0604 85.9949 53.854 88.8433 51.006L88.9377 50.9116L95.9346 43.2838L87.4983 34.1628L80.0075 42.3461C73.1824 49.0764 62.1542 49.0473 55.3654 42.2591C48.5473 35.4417 48.5473 24.3491 55.3654 17.5317C62.1542 10.7435 73.1824 10.7144 80.0075 17.4447L110.616 50.8136L110.706 50.9121L110.801 51.0065C113.649 53.8544 116.973 56.0608 120.681 57.5644C124.259 59.0151 128.038 59.7509 131.913 59.7509C135.788 59.7509 139.568 59.0151 143.146 57.5644C146.854 56.0608 150.178 53.8544 153.026 51.0065C155.874 48.1585 158.081 44.8346 159.585 41.127C160.286 39.3972 160.821 37.6203 161.186 35.8083L183.213 59.8219H200L200 59.8214Z" fill="#4E94D7"/>
</svg>
