<svg fill="none" viewBox="0 0 16 16"><defs/><path fill="#2F385E" fill-rule="evenodd" d="M4.666 7.667a.667.667 0 111.334 0 .667.667 0 01-1.334 0zM8 7a.667.667 0 100 1.334A.667.667 0 008 7zm2.666 0a.667.667 0 100 1.334.667.667 0 000-1.334zm2.667 4c0 .367-.3.667-.667.667H5.702c-.362 0-.718.098-1.029.285l-2.007 1.204V4.333c0-.367.3-.666.667-.666h9.333c.368 0 .667.299.667.666V11zm-.667-8.667H3.333c-1.103 0-2 .898-2 2v10a.667.667 0 001.01.572l3.016-1.81A.665.665 0 015.702 13h6.964c1.103 0 2-.897 2-2V4.333c0-1.102-.897-2-2-2z" clip-rule="evenodd"/></svg>