<svg width="25" height="26" viewBox="0 0 25 26" fill="none" xmlns="http://www.w3.org/2000/svg">
    <defs>
        <linearGradient id="paint0_linear" x1="17.9999" y1="0" x2="17.9999" y2="14" gradientUnits="userSpaceOnUse">
            <stop stop-color="#111316" />
            <stop offset="1" stop-color="#1E2125" />
        </linearGradient>
        <linearGradient id="paint1_linear" x1="18.0001" y1="3" x2="28.7808" y2="5.55551" gradientUnits="userSpaceOnUse">
            <stop stop-color="#438AF9" />
            <stop offset="1" stop-color="#2D3ED5" />
        </linearGradient>
    </defs>
    <path fill-rule="evenodd" clip-rule="evenodd" d="M5.51459 18.0001L6.69459 16.8181C7.07259 16.4401 7.28059 15.9381 7.28059 15.4041V10.7271C7.28059 9.37007 7.87059 8.07307 8.90059 7.17107C9.93859 6.26107 11.2606 5.86107 12.6376 6.04207C14.9646 6.35107 16.7196 8.45507 16.7196 10.9371V15.4041C16.7196 15.9381 16.9276 16.4401 17.3046 16.8171L18.4856 18.0001H5.51459ZM13.9996 20.3411C13.9996 21.2401 13.0836 22.0001 11.9996 22.0001C10.9156 22.0001 9.99961 21.2401 9.99961 20.3411V20.0001H13.9996V20.3411ZM20.5206 17.2081L18.7196 15.4041V10.9371C18.7196 7.45608 16.2176 4.49908 12.8996 4.06008C10.9776 3.80408 9.0376 4.39108 7.5826 5.66708C6.1186 6.94908 5.2806 8.79308 5.2806 10.7271L5.2796 15.4041L3.4786 17.2081C3.0096 17.6781 2.8706 18.3771 3.1246 18.9901C3.3796 19.6041 3.9726 20.0001 4.6366 20.0001H7.9996V20.3411C7.9996 22.3591 9.7936 24.0001 11.9996 24.0001C14.2056 24.0001 15.9996 22.3591 15.9996 20.3411V20.0001H19.3626C20.0266 20.0001 20.6186 19.6041 20.8726 18.9911C21.1276 18.3771 20.9896 17.6771 20.5206 17.2081Z" fill="white" />
    <ellipse cx="17.9999" cy="7" rx="7" ry="7" fill="url(#paint0_linear)" />
    <circle cx="18.0001" cy="7" r="5" fill="url(#paint1_linear)" />
</svg>
    