<svg fill="none" viewBox="0 0 16 17"><defs/><path fill="#2F385E" fill-rule="evenodd" d="M8.002 11.416a.792.792 0 110-1.584.792.792 0 010 1.584zm0-3.166a2.378 2.378 0 00-2.376 2.374A2.378 2.378 0 008.002 13a2.378 2.378 0 002.375-2.375A2.378 2.378 0 008.002 8.25zm4.751 5.54a.792.792 0 01-.792.793H4.043a.792.792 0 01-.792-.792V7.458c0-.437.354-.792.792-.792h7.918c.438 0 .792.355.792.792v6.333zM6.418 3.589c0-.922.71-1.672 1.584-1.672.873 0 1.584.75 1.584 1.672v1.495H6.418V3.588zm5.543 1.495h-.792V3.588c0-1.794-1.42-3.255-3.167-3.255-1.747 0-3.168 1.46-3.168 3.255v1.495h-.791a2.378 2.378 0 00-2.376 2.375v6.333a2.378 2.378 0 002.376 2.375h7.918a2.378 2.378 0 002.376-2.375V7.458a2.378 2.378 0 00-2.376-2.375z" clip-rule="evenodd"/></svg>