<svg fill="none" viewBox="0 0 24 24"><defs/><path fill="#2F385E" fill-rule="evenodd" d="M16 11h-3V8a1 1 0 10-2 0v4a1 1 0 001 1h4a1 1 0 100-2zm-4 9c-4.411 0-8-3.589-8-8s3.589-8 8-8 8 3.589 8 8-3.589 8-8 8zm0-18C6.486 2 2 6.486 2 12s4.486 10 10 10 10-4.486 10-10S17.514 2 12 2z" clip-rule="evenodd"/><mask id="a" width="20" height="20" x="2" y="2" maskUnits="userSpaceOnUse"><path fill="#fff" fill-rule="evenodd" d="M16 11h-3V8a1 1 0 10-2 0v4a1 1 0 001 1h4a1 1 0 100-2zm-4 9c-4.411 0-8-3.589-8-8s3.589-8 8-8 8 3.589 8 8-3.589 8-8 8zm0-18C6.486 2 2 6.486 2 12s4.486 10 10 10 10-4.486 10-10S17.514 2 12 2z" clip-rule="evenodd"/></mask><g mask="url(#a)"><path fill="#2F385E" d="M0 0h24v24H0z"/></g></svg>