<svg width="24" height="21" viewBox="0 0 24 21" fill="none" xmlns="http://www.w3.org/2000/svg">
<path d="M16.7119 13.4237C15.3844 13.4237 14.0867 13.0301 12.983 12.2926C11.8792 11.5551 11.0189 10.5068 10.5109 9.28039C10.0029 8.05396 9.86999 6.70442 10.129 5.40245C10.3879 4.10047 11.0272 2.90453 11.9659 1.96586C12.9045 1.02719 14.1005 0.387948 15.4024 0.12897C16.7044 -0.130009 18.054 0.00290816 19.2804 0.510913C20.5068 1.01892 21.5551 1.8792 22.2926 2.98296C23.0301 4.08672 23.4237 5.38439 23.4237 6.71187C23.4216 8.4913 22.7137 10.1972 21.4555 11.4555C20.1972 12.7137 18.4913 13.4216 16.7119 13.4237ZM16.7119 2.0339C15.7867 2.0339 14.8822 2.30826 14.1129 2.82228C13.3436 3.3363 12.7441 4.0669 12.39 4.92169C12.0359 5.77647 11.9433 6.71706 12.1238 7.62449C12.3043 8.53193 12.7498 9.36547 13.404 10.0197C14.0583 10.6739 14.8918 11.1194 15.7992 11.2999C16.7067 11.4804 17.6473 11.3878 18.502 11.0337C19.3568 10.6797 20.0874 10.0801 20.6015 9.31081C21.1155 8.54152 21.3898 7.63708 21.3898 6.71187C21.3888 5.47152 20.8956 4.28229 20.0185 3.40524C19.1414 2.52818 17.9522 2.03498 16.7119 2.0339Z" fill="#151F32"/>
<path d="M18.1116 9.12781C17.9779 9.12827 17.8455 9.10226 17.7219 9.0513C17.5983 9.00033 17.4861 8.92541 17.3916 8.83086L15.9923 7.43153C15.802 7.2402 15.6953 6.98134 15.6953 6.71153V4.27086C15.6953 4.00114 15.8025 3.74248 15.9932 3.55176C16.1839 3.36105 16.4425 3.25391 16.7123 3.25391C16.982 3.25391 17.2406 3.36105 17.4314 3.55176C17.6221 3.74248 17.7292 4.00114 17.7292 4.27086V6.30475L18.8316 7.40713C18.9742 7.54936 19.0713 7.73072 19.1107 7.92823C19.1501 8.12574 19.13 8.3305 19.0528 8.51654C18.9757 8.70259 18.8451 8.86155 18.6775 8.97327C18.51 9.08499 18.313 9.14444 18.1116 9.14408V9.12781Z" fill="#151F32"/>
<mask id="path-3-inside-1_810_3368" fill="white">
<path fill-rule="evenodd" clip-rule="evenodd" d="M11.9999 13.4832C13.4799 14.4722 15.22 15 17 15C18.032 14.9988 19.0455 14.8205 20 14.4821V18C20 19.6569 18.6569 21 17 21H3C1.34315 21 0 19.6569 0 18V13H11.3431C11.554 13.1704 11.7731 13.3317 11.9999 13.4832Z"/>
</mask>
<path fill-rule="evenodd" clip-rule="evenodd" d="M11.9999 13.4832C13.4799 14.4722 15.22 15 17 15C18.032 14.9988 19.0455 14.8205 20 14.4821V18C20 19.6569 18.6569 21 17 21H3C1.34315 21 0 19.6569 0 18V13H11.3431C11.554 13.1704 11.7731 13.3317 11.9999 13.4832Z" fill="#151F32"/>
<path d="M17 15V16.5L17.0018 16.5L17 15ZM11.9999 13.4832L11.1665 14.7304V14.7304L11.9999 13.4832ZM20 14.4821H21.5V12.3588L19.4988 13.0683L20 14.4821ZM0 13V11.5H-1.5V13H0ZM11.3431 13L12.2859 11.8333L11.8735 11.5H11.3431V13ZM17 13.5C15.5166 13.5 14.0666 13.0601 12.8332 12.236L11.1665 14.7304C12.8932 15.8842 14.9233 16.5 17 16.5V13.5ZM19.4988 13.0683C18.7031 13.3504 17.8584 13.499 16.9982 13.5L17.0018 16.5C18.2055 16.4985 19.3879 16.2906 20.5012 15.8959L19.4988 13.0683ZM18.5 14.4821V18H21.5V14.4821H18.5ZM18.5 18C18.5 18.8284 17.8284 19.5 17 19.5V22.5C19.4853 22.5 21.5 20.4853 21.5 18H18.5ZM17 19.5H3V22.5H17V19.5ZM3 19.5C2.17157 19.5 1.5 18.8284 1.5 18H-1.5C-1.5 20.4853 0.514718 22.5 3 22.5V19.5ZM1.5 18V13H-1.5V18H1.5ZM0 14.5H11.3431V11.5H0V14.5ZM12.8332 12.236C12.6443 12.1098 12.4617 11.9753 12.2859 11.8333L10.4003 14.1667C10.6464 14.3655 10.902 14.5537 11.1665 14.7304L12.8332 12.236Z" fill="#151F32" mask="url(#path-3-inside-1_810_3368)"/>
<mask id="path-5-inside-2_810_3368" fill="white">
<path fill-rule="evenodd" clip-rule="evenodd" d="M8.93774 11C8.84746 10.818 8.76317 10.6327 8.68509 10.4442C8.2306 9.34693 8.00001 8.17622 8 7H3C1.34315 7 0 8.34315 0 10V11H8.93774Z"/>
</mask>
<path fill-rule="evenodd" clip-rule="evenodd" d="M8.93774 11C8.84746 10.818 8.76317 10.6327 8.68509 10.4442C8.2306 9.34693 8.00001 8.17622 8 7H3C1.34315 7 0 8.34315 0 10V11H8.93774Z" fill="#151F32"/>
<path d="M8.93774 11V12.5H11.3564L10.2815 10.3333L8.93774 11ZM8.68509 10.4442L7.29927 11.0182V11.0182L8.68509 10.4442ZM8 7L9.5 6.99999L9.49999 5.5H8V7ZM0 11H-1.5V12.5H0V11ZM10.2815 10.3333C10.2062 10.1817 10.136 10.0272 10.0709 9.87013L7.29927 11.0182C7.39036 11.2381 7.4887 11.4544 7.59402 11.6667L10.2815 10.3333ZM10.0709 9.87013C9.69217 8.95578 9.50001 7.9802 9.5 6.99999L6.5 7.00001C6.50001 8.37224 6.76903 9.73807 7.29927 11.0182L10.0709 9.87013ZM3 8.5H8V5.5H3V8.5ZM1.5 10C1.5 9.17157 2.17157 8.5 3 8.5V5.5C0.514719 5.5 -1.5 7.51472 -1.5 10H1.5ZM1.5 11V10H-1.5V11H1.5ZM8.93774 9.5H0V12.5H8.93774V9.5Z" fill="#151F32" mask="url(#path-5-inside-2_810_3368)"/>
</svg>
