<svg fill="none" viewBox="0 0 16 16"><defs/><path fill="#2F385E" fill-rule="evenodd" d="M6.667 3.333a1.335 1.335 0 010 2.667 1.335 1.335 0 01-1.334-1.333c0-.736.598-1.334 1.334-1.334zm0 4a2.67 2.67 0 002.666-2.666A2.67 2.67 0 006.667 2 2.67 2.67 0 004 4.667a2.67 2.67 0 002.667 2.666zm0 1.334A4.672 4.672 0 002 13.333a.667.667 0 101.333 0A3.337 3.337 0 016.667 10 3.337 3.337 0 0110 13.333a.667.667 0 101.333 0 4.672 4.672 0 00-4.666-4.666zM13.333 4H14c.367 0 .667.3.667.667 0 .366-.3.666-.667.666h-.667V6c0 .367-.3.667-.666.667A.669.669 0 0112 6v-.667h-.667a.669.669 0 01-.666-.666c0-.367.3-.667.666-.667H12v-.667c0-.366.3-.666.667-.666.366 0 .666.3.666.666V4z" clip-rule="evenodd"/><mask id="a" width="13" height="12" x="2" y="2" maskUnits="userSpaceOnUse"><path fill="#fff" fill-rule="evenodd" d="M6.667 3.333a1.335 1.335 0 010 2.667 1.335 1.335 0 01-1.334-1.333c0-.736.598-1.334 1.334-1.334zm0 4a2.67 2.67 0 002.666-2.666A2.67 2.67 0 006.667 2 2.67 2.67 0 004 4.667a2.67 2.67 0 002.667 2.666zm0 1.334A4.672 4.672 0 002 13.333a.667.667 0 101.333 0A3.337 3.337 0 016.667 10 3.337 3.337 0 0110 13.333a.667.667 0 101.333 0 4.672 4.672 0 00-4.666-4.666zM13.333 4H14c.367 0 .667.3.667.667 0 .366-.3.666-.667.666h-.667V6c0 .367-.3.667-.666.667A.669.669 0 0112 6v-.667h-.667a.669.669 0 01-.666-.666c0-.367.3-.667.666-.667H12v-.667c0-.366.3-.666.667-.666.366 0 .666.3.666.666V4z" clip-rule="evenodd"/></mask><g mask="url(#a)"><path fill="#2F385E" d="M0 0h16v16H0z"/></g></svg>