<svg fill="none" viewBox="0 0 16 16"><defs/><path fill="#2F385E" fill-rule="evenodd" d="M10 7.333H8.667V6c0-.367-.3-.667-.667-.667-.367 0-.667.3-.667.667v1.333H6c-.367 0-.667.3-.667.667 0 .367.3.667.667.667h1.333V10c0 .367.3.667.667.667.367 0 .667-.3.667-.667V8.667H10c.367 0 .667-.3.667-.667 0-.367-.3-.667-.667-.667zm-2 6A5.34 5.34 0 012.667 8 5.34 5.34 0 018 2.667 5.34 5.34 0 0113.334 8 5.34 5.34 0 018 13.333zm0-12A6.674 6.674 0 001.333 8 6.674 6.674 0 008 14.667 6.674 6.674 0 0014.667 8 6.674 6.674 0 008 1.333z" clip-rule="evenodd"/><mask id="a" width="14" height="14" x="1" y="1" maskUnits="userSpaceOnUse"><path fill="#fff" fill-rule="evenodd" d="M10 7.333H8.667V6c0-.367-.3-.667-.667-.667-.367 0-.667.3-.667.667v1.333H6c-.367 0-.667.3-.667.667 0 .367.3.667.667.667h1.333V10c0 .367.3.667.667.667.367 0 .667-.3.667-.667V8.667H10c.367 0 .667-.3.667-.667 0-.367-.3-.667-.667-.667zm-2 6A5.34 5.34 0 012.667 8 5.34 5.34 0 018 2.667 5.34 5.34 0 0113.334 8 5.34 5.34 0 018 13.333zm0-12A6.674 6.674 0 001.333 8 6.674 6.674 0 008 14.667 6.674 6.674 0 0014.667 8 6.674 6.674 0 008 1.333z" clip-rule="evenodd"/></mask><g mask="url(#a)"><path fill="#2F385E" d="M0 0h16v16H0z"/></g></svg>