<svg fill="none" viewBox="0 0 20 20">
    <path fill="#438AF9" d="M19.39 0h-4.707a.584.584 0 000 1.169h4.122v4.473a.584.584 0 001.169 0V.584A.584.584 0 0019.389 0z" />
    <path fill="#438AF9" d="M.614 5.875A.584.584 0 001.2 5.29V1.169h4.473a.584.584 0 000-1.169H.614A.584.584 0 00.03.584v4.707c0 .322.261.584.584.584z" />
    <path fill="#438AF9" d="M5.317 18.831H1.195v-4.473a.584.584 0 10-1.169 0v5.058c0 .322.262.584.585.584h4.706a.584.584 0 100-1.169z" />
    <path fill="#438AF9" d="M19.386 14.125a.584.584 0 00-.585.584v4.122h-4.473a.584.584 0 000 1.169h5.058a.584.584 0 00.584-.584v-4.707a.584.584 0 00-.584-.584z" />
    <path fill="#438AF9" d="M7.67 11.608H2.945a.584.584 0 00-.584.584v4.831c0 .323.262.585.584.585H7.67a.584.584 0 00.585-.585v-4.83a.584.584 0 00-.585-.585zm-.585 4.831H3.53v-3.662h3.554v3.662z" />
    <path fill="#438AF9" d="M7.67 9.386H6.415a.584.584 0 000 1.168h1.253a.584.584 0 100-1.168z" />
    <path fill="#438AF9" d="M2.946 10.554h1.241a.584.584 0 100-1.168h-1.24a.584.584 0 000 1.168z" />
    <path fill="#438AF9" d="M10.002 8.325a.584.584 0 00.584-.584V2.909a.584.584 0 00-1.168 0v4.832c0 .322.261.584.584.584z" />
    <path fill="#438AF9" d="M17.65 17.023v-2.791a.584.584 0 00-.583-.585h-2.87v-1.015a.584.584 0 00-.585-.585h-3.026v-1.493h4.412v.815a.584.584 0 101.168 0v-.815h.9a.584.584 0 100-1.168h-7.064a.584.584 0 00-.584.584v7.027a.584.584 0 001.168 0v-1.473h.947a.584.584 0 000-1.17h-.947v-1.138h2.441v1.016c0 .322.262.584.585.584h2.87v1.623h-4.399a.584.584 0 000 1.169h4.984a.584.584 0 00.584-.585z" />
    <path fill="#438AF9" d="M7.67 2.325H2.945a.584.584 0 00-.584.584v4.832c0 .322.262.584.584.584H7.67a.584.584 0 00.585-.584V2.909a.584.584 0 00-.585-.584zm-.585 4.831H3.53V3.494h3.554v3.662z" />
    <path fill="#438AF9" d="M12.344 8.325h4.722a.584.584 0 00.585-.584V2.909a.584.584 0 00-.585-.584h-4.722a.584.584 0 00-.585.584v4.832c0 .322.262.584.585.584zm.584-4.831h3.554v3.662h-3.554V3.494z" />
    <path fill="#438AF9" d="M4.858 15.386h.9a.31.31 0 00.31-.31v-.936a.31.31 0 00-.31-.31h-.9a.31.31 0 00-.31.31v.935c0 .172.138.31.31.31z" />
    <path fill="#438AF9" d="M4.858 6.103h.9a.31.31 0 00.31-.31v-.936a.31.31 0 00-.31-.31h-.9a.31.31 0 00-.31.31v.935c0 .172.138.31.31.31z" />
    <path fill="#438AF9" d="M15.155 4.572h-.9a.31.31 0 00-.31.31v.935c0 .171.139.31.31.31h.9a.31.31 0 00.31-.31v-.935a.31.31 0 00-.31-.31z" />
</svg>