<svg width="9" height="13" viewBox="0 0 9 13" fill="none" xmlns="http://www.w3.org/2000/svg">
<path d="M1.984 8.4L0.576 9.376C0.821333 9.888 1.152 10.3627 1.568 10.8C1.984 11.2373 2.46933 11.5893 3.024 11.856C3.58933 12.112 4.20267 12.24 4.864 12.24C5.344 12.24 5.80267 12.16 6.24 12C6.688 11.8507 7.088 11.6373 7.44 11.36C7.792 11.072 8.06933 10.72 8.272 10.304C8.47467 9.888 8.576 9.41867 8.576 8.896C8.576 8.40533 8.49067 7.97867 8.32 7.616C8.16 7.25333 7.94133 6.93867 7.664 6.672C7.38667 6.39467 7.07733 6.16533 6.736 5.984C6.40533 5.80267 6.07467 5.65333 5.744 5.536C5.14667 5.32267 4.66133 5.11467 4.288 4.912C3.91467 4.70933 3.63733 4.496 3.456 4.272C3.28533 4.03733 3.2 3.776 3.2 3.488C3.2 3.168 3.32267 2.89067 3.568 2.656C3.81333 2.41067 4.19733 2.288 4.72 2.288C5.09333 2.288 5.41867 2.36267 5.696 2.512C5.984 2.65067 6.23467 2.84267 6.448 3.088C6.66133 3.32267 6.83733 3.57867 6.976 3.856L8.512 2.992C8.32 2.59733 8.05333 2.21867 7.712 1.856C7.38133 1.49333 6.97067 1.19467 6.48 0.959999C5.98933 0.725333 5.41333 0.608 4.752 0.608C4.08 0.608 3.47733 0.736 2.944 0.992C2.42133 1.23733 2.00533 1.58933 1.696 2.048C1.38667 2.496 1.232 3.01867 1.232 3.616C1.232 4.13867 1.33333 4.58667 1.536 4.96C1.73867 5.32267 1.99467 5.632 2.304 5.888C2.61333 6.13333 2.93867 6.34133 3.28 6.512C3.62133 6.672 3.93067 6.8 4.208 6.896C4.67733 7.06667 5.088 7.24267 5.44 7.424C5.80267 7.59467 6.08533 7.808 6.288 8.064C6.49067 8.30933 6.592 8.64 6.592 9.056C6.592 9.49333 6.432 9.85067 6.112 10.128C5.792 10.4053 5.376 10.544 4.864 10.544C4.43733 10.544 4.05333 10.4587 3.712 10.288C3.37067 10.1067 3.056 9.856 2.768 9.536C2.49067 9.20533 2.22933 8.82667 1.984 8.4Z" fill="#4E94D7"/>
</svg>
