<svg fill="none" viewBox="0 0 16 16"><defs/><path fill="#000" d="M6 12c3.308 0 6-2.692 6-6S9.308 0 6 0 0 2.692 0 6s2.692 6 6 6zM6 1.938A4.067 4.067 0 0110.062 6 4.067 4.067 0 016 10.062 4.067 4.067 0 011.938 6 4.067 4.067 0 016 1.938z"/><path fill="#000" d="M14.313 16c.45 0 .875-.175 1.193-.494.319-.319.494-.742.494-1.193 0-.45-.175-.875-.494-1.194l-3.341-3.34a.456.456 0 00-.323-.139.455.455 0 00-.375.203 6.497 6.497 0 01-1.624 1.624.462.462 0 00-.2.336.455.455 0 00.135.361l3.341 3.342c.32.319.743.494 1.194.494z"/></svg>