<svg fill="none" viewBox="0 0 24 24"><defs/><path fill="#151F32" d="M8.8 4.265A2.275 2.275 0 0111.082 2h1.836A2.272 2.272 0 0115.2 4.265v.618c.5.213.977.477 1.422.787l.539-.307a2.296 2.296 0 013.112.825l.918 1.566a2.252 2.252 0 01-.84 3.1l-.478.271a7.65 7.65 0 010 1.654l.478.272a2.252 2.252 0 01.84 3.099l-.918 1.567a2.296 2.296 0 01-3.112.824l-.54-.307c-.444.31-.92.574-1.42.787v.619a2.275 2.275 0 01-2.283 2.264h-1.836A2.272 2.272 0 018.8 19.64v-.733c-.45-.21-.88-.462-1.28-.753l-.68.387a2.296 2.296 0 01-3.113-.824L2.81 16.15a2.252 2.252 0 01.84-3.1l.718-.408a7.676 7.676 0 010-1.38l-.718-.408a2.252 2.252 0 01-.84-3.1l.918-1.566a2.296 2.296 0 013.112-.825l.68.387a7.81 7.81 0 011.28-.753v-.732zm1.81 1.333a.905.905 0 01-.591.849A6 6 0 008.19 7.524a.905.905 0 01-1.037.1l-1.21-.688a.487.487 0 00-.656.166L4.37 8.67a.442.442 0 00.174.612l1.248.71c.332.189.51.567.443.944a5.827 5.827 0 000 2.034.905.905 0 01-.444.945l-1.247.71a.442.442 0 00-.174.611l.918 1.567c.129.219.426.297.656.166l1.21-.688a.905.905 0 011.037.1 6 6 0 001.828 1.077c.355.132.59.47.59.849v1.334c0 .25.209.455.473.455h1.836a.466.466 0 00.473-.455v-1.245c0-.392.251-.739.623-.86a5.997 5.997 0 001.96-1.08.905.905 0 011.024-.089l1.058.602c.23.131.527.053.656-.166l.918-1.567a.442.442 0 00-.174-.612l-1.017-.579a.905.905 0 01-.44-.962 5.817 5.817 0 000-2.26.905.905 0 01.44-.962l1.017-.58a.442.442 0 00.174-.61l-.918-1.568a.487.487 0 00-.656-.166l-1.058.602a.905.905 0 01-1.024-.09 5.997 5.997 0 00-1.96-1.078.905.905 0 01-.623-.86V4.265a.463.463 0 00-.473-.456h-1.836a.466.466 0 00-.473.456v1.333zm1.39 9.52a3.167 3.167 0 110-6.332 3.167 3.167 0 010 6.333zm0-1.809a1.357 1.357 0 100-2.714 1.357 1.357 0 000 2.714z"/></svg>