<svg fill="none" viewBox="0 0 24 24"><defs/><path fill="#2F385E" fill-rule="evenodd" d="M12 14H9a1 1 0 010-2h3a1 1 0 010 2zm-4 3a1 1 0 011-1h6a1 1 0 110 2H9a1 1 0 01-1-1zm9.445 3H6.555C6.25 20 6 19.776 6 19.5v-15c0-.276.25-.5.555-.5h5.446v3.15C12 8.722 13.216 10 14.713 10H18v9.5c0 .276-.248.5-.555.5zM14 4.978L16.742 8h-2.028C14.32 8 14 7.619 14 7.15V4.978zm5.74 3.35l-5.444-6A1 1 0 0013.555 2h-7C5.146 2 4 3.122 4 4.5v15C4 20.878 5.146 22 6.555 22h10.89C18.854 22 20 20.878 20 19.5V9a1 1 0 00-.26-.672z" clip-rule="evenodd"/><mask id="a" width="17" height="20" x="4" y="2" maskUnits="userSpaceOnUse"><path fill="#fff" fill-rule="evenodd" d="M12 14H9a1 1 0 010-2h3a1 1 0 010 2zm-4 3a1 1 0 011-1h6a1 1 0 110 2H9a1 1 0 01-1-1zm9.445 3H6.555C6.25 20 6 19.776 6 19.5v-15c0-.276.25-.5.555-.5h5.446v3.15C12 8.722 13.216 10 14.713 10H18v9.5c0 .276-.248.5-.555.5zM14 4.978L16.742 8h-2.028C14.32 8 14 7.619 14 7.15V4.978zm5.74 3.35l-5.444-6A1 1 0 0013.555 2h-7C5.146 2 4 3.122 4 4.5v15C4 20.878 5.146 22 6.555 22h10.89C18.854 22 20 20.878 20 19.5V9a1 1 0 00-.26-.672z" clip-rule="evenodd"/></mask><g mask="url(#a)"><path fill="#2F385E" d="M0 0h24v24H0z"/></g></svg>