<svg xmlns:svg="http://www.w3.org/2000/svg" xmlns="http://www.w3.org/2000/svg" viewBox="0 0 24.000001 24.000001">
  <path d="M 17.710938 1.4511719 C 16.504089 1.4511719 15.359855 1.9244846 14.507812 2.7792969 C 13.260236 4.0307881 12.935543 5.8325686 13.462891 7.4082031 L 10.943359 9.9257812 L 8.2011719 7.1875 L 6.7832031 4.7558594 C 6.7262515 4.6583066 6.644774 4.5617073 6.5390625 4.4882812 L 4.1132812 2.8066406 C 3.7814138 2.5763086 3.3275715 2.6196943 3.0429688 2.9042969 L 1.9628906 3.984375 C 1.6799378 4.2671549 1.6363166 4.7228283 1.8652344 5.0527344 L 3.5488281 7.4785156 C 3.6177861 7.5777946 3.7081608 7.6635532 3.8164062 7.7265625 L 3.8164062 7.7246094 L 6.2441406 9.140625 L 8.984375 11.882812 L 7.15625 13.712891 C 6.6988963 13.560098 6.2328417 13.423828 5.7382812 13.423828 C 4.5307898 13.423828 3.3869968 13.899374 2.5351562 14.753906 C 1.369027 15.923687 0.93259741 17.638214 1.3984375 19.224609 C 1.4734545 19.480439 1.6790533 19.670598 1.9296875 19.734375 A 0.50085677 0.50085677 0 0 0 1.9296875 19.736328 C 2.184751 19.801058 2.4566902 19.721638 2.6386719 19.539062 L 4.8691406 17.302734 C 5.0140586 17.384944 5.1783857 17.451555 5.7070312 17.978516 C 6.2352187 18.505073 6.3019174 18.669248 6.3847656 18.814453 L 4.1542969 21.052734 C 3.9706557 21.237032 3.8985348 21.511549 3.9628906 21.761719 C 4.0286076 22.016336 4.2197552 22.216729 4.4765625 22.291016 C 4.8883383 22.410489 5.3132372 22.46875 5.7402344 22.46875 C 6.9469564 22.46875 8.0912959 21.995459 8.9433594 21.140625 C 9.7936581 20.287634 10.263539 19.145983 10.261719 17.941406 C 10.260964 17.448223 10.125228 16.983203 9.9726562 16.527344 L 11.800781 14.697266 L 12.097656 14.994141 L 11.767578 15.324219 C 11.52702 15.564892 11.390625 15.89422 11.390625 16.234375 C 11.390625 16.574562 11.528476 16.903476 11.767578 17.142578 L 16.595703 21.970703 C 16.836415 22.211416 17.165706 22.347656 17.505859 22.347656 C 17.846004 22.347656 18.175336 22.211279 18.416016 21.970703 L 21.03125 19.355469 C 21.272087 19.114748 21.408203 18.785382 21.408203 18.445312 C 21.408203 18.105169 21.271976 17.775872 21.03125 17.535156 L 16.203125 12.707031 C 15.962417 12.466325 15.633126 12.330078 15.292969 12.330078 C 14.952825 12.330078 14.623532 12.4663 14.382812 12.707031 L 14.052734 13.037109 L 13.759766 12.742188 L 16.294922 10.207031 C 16.751553 10.359698 17.216514 10.496094 17.710938 10.496094 C 18.917718 10.496094 20.063561 10.023037 20.916016 9.1679688 C 22.08235 7.9979822 22.516394 6.2833954 22.050781 4.6972656 C 21.978341 4.4501973 21.780997 4.2516477 21.521484 4.1855469 C 21.263748 4.1196849 20.99608 4.1946769 20.810547 4.3808594 L 18.580078 6.6171875 C 18.435278 6.5350725 18.27088 6.4685175 17.742188 5.9414062 C 17.214108 5.4149056 17.147388 5.2508035 17.064453 5.1054688 L 19.294922 2.8671875 C 19.474765 2.6867051 19.554485 2.4155429 19.488281 2.1582031 C 19.42255 1.9035362 19.230842 1.703245 18.974609 1.6289062 C 18.5629 1.5095583 18.137937 1.4511719 17.710938 1.4511719 z M 16.78125 3.2558594 L 15.998047 4.0429688 C 15.52074 4.5226036 15.422106 5.2640488 15.757812 5.8515625 C 15.781306 5.8927293 16.079077 6.408999 16.679688 7.0078125 C 17.280695 7.6070235 17.79811 7.9032202 17.837891 7.9257812 C 18.426306 8.2586906 19.166839 8.1580925 19.644531 7.6796875 L 20.501953 6.8222656 C 20.384746 7.2984901 20.204894 7.749071 19.849609 8.1054688 C 19.276732 8.680102 18.525233 8.9902344 17.710938 8.9902344 C 17.497039 8.9902344 17.191923 8.9192105 16.773438 8.7792969 C 16.232556 8.5978927 15.634095 8.7394087 15.230469 9.1425781 L 12.695312 11.677734 C 11.716878 12.654196 11.226947 13.144628 10.982422 13.388672 C 10.860088 13.510762 10.798048 13.571513 10.767578 13.601562 C 10.755248 13.613752 10.752047 13.619247 10.748047 13.623047 A 0.15763111 0.15763111 0 0 1 10.746094 13.623047 C 10.746194 13.622947 10.742807 13.626382 10.742188 13.626953 A 0.15763111 0.15763111 0 0 0 10.736328 13.632812 L 8.9082031 15.462891 C 8.5050339 15.866516 8.3635177 16.464978 8.5449219 17.005859 C 8.6841954 17.421986 8.7555306 17.728629 8.7558594 17.943359 C 8.7570871 18.755937 8.4495869 19.503678 7.8769531 20.078125 C 7.5509759 20.405162 7.120068 20.557275 6.6640625 20.666016 L 7.4511719 19.876953 C 7.9284789 19.397318 8.0271134 18.655873 7.6914062 18.068359 C 7.668185 18.02766 7.3703212 17.511044 6.7695312 16.912109 C 6.1686636 16.313154 5.6516611 16.017021 5.6113281 15.994141 C 5.0229124 15.661231 4.2823803 15.76183 3.8046875 16.240234 L 2.9511719 17.095703 C 3.0686733 16.621172 3.2471898 16.171888 3.6015625 15.816406 C 4.1755482 15.240607 4.9250831 14.929688 5.7382812 14.929688 C 5.9526441 14.929688 6.2591763 15.000793 6.6777344 15.140625 C 7.218615 15.322029 7.817077 15.180513 8.2207031 14.777344 L 10.048828 12.947266 L 14.527344 8.4726562 C 14.930515 8.0690298 15.072029 7.4705674 14.890625 6.9296875 C 14.5314 5.856377 14.743942 4.6746791 15.574219 3.8417969 C 15.898663 3.5162977 16.327276 3.3644335 16.78125 3.2558594 z M 3.6855469 4.0371094 L 5.7402344 5.4628906 L 6.6269531 6.9804688 L 6.0410156 7.5664062 L 4.5253906 6.6816406 L 3.0976562 4.625 L 3.6855469 4.0371094 z M 15.292969 14.03125 L 19.707031 18.445312 L 17.505859 20.646484 L 13.09375 16.234375 L 13.214844 16.111328 A 1.5791687 1.5791687 0 0 1 13.214844 16.109375 L 15.169922 14.154297 L 15.292969 14.03125 z " style="stroke-width:0.070623" id="path877" />
</svg>