<svg fill="none" viewBox="0 0 16 16"><defs/><path fill="#2F385E" stroke="#2F385E" stroke-width=".2" d="M11.216 13.773l-.006-.005.006.005zm0 0c.245.19.513.29.774.29l-.774-.29zM1.723 8.484h-.001c-.335-.107-.541-.256-.663-.414A.732.732 0 01.9 7.639a.732.732 0 01.134-.439c.113-.164.31-.325.639-.45 0 0 0 0 0 0l11.85-4.524c.184-.07.366-.107.54-.107.32 0 .606.126.798.36M1.723 8.485l13.06-5.941M1.724 8.484l.013.004h.001l2.408.69 1.312 3.752.094-.033-.094.033c.192.55.632.907 1.156.907.328 0 .645-.138.918-.388h0l1.457-1.342-7.265-3.623zM14.861 2.48l-.077.063m.077-.063s0 0 0 0l-.077.063m.077-.063c.22.27.287.647.205 1.053l-.098-.02m-.184-.97c.196.24.262.585.184.97m0 0l.098.02m-.098-.02l.098.02m0 0l-1.942 9.587c-.125.62-.565 1.044-1.133 1.044h0c-.288 0-.577-.111-.836-.312h0l-.003-.003-.003-.002h-.001 0l-.02-.016m3.938-10.298l-3.947 10.29-.001-.001.07-.071-.005.006-.057.072s0 0 0 0m.003.002a.044.044 0 00.004.003h0m-.004-.003l-.002-.002m.002.002a.039.039 0 01-.004-.003h.001v.001m.007.005l.003.002h0m-.003-.002l.004.002m-.004-.002a.105.105 0 01-.006-.005m.01.007h0c0 .001 0 0 0 0zm-4.5-4a.51.51 0 01.124-.228s0 0 0 0L9.319 6.89 5.167 9.011l.981 2.805m.49-1.98h0l.096.023-.097-.023zm0 0l-.49 1.98m0 0l.06.172-1.164-3.026 1.06 3.031.044-.177zm5.966-7.025h0a.51.51 0 00-.64-.148l-6.988 3.57-2.165-.619L13.887 3.18h0a.505.505 0 01.187-.04.548.548 0 01-.008.19l-1.942 9.589a.58.58 0 01-.054.158c-.03.053-.057.067-.08.067-.043 0-.117-.026-.206-.095l-2.497-2.01a.059.059 0 00-.005-.004l-1.4-1.128 4.196-4.459a.51.51 0 00.037-.656zM7.023 12.53l.413-1.672.748.603-1.16 1.069z"/></svg>