<svg width="76" height="68" viewBox="0 0 76 68" fill="none" xmlns="http://www.w3.org/2000/svg">
<path d="M75.5017 2.54623C74.8326 1.38045 73.6306 0.6846 72.2864 0.6846L3.71359 0.682373C2.12166 0.682373 0.749711 1.65208 0.218624 3.15287C-0.312612 4.65366 0.143814 6.27037 1.38129 7.27184L28.7235 29.3985L34.0415 64.1678C34.2821 65.7415 35.4482 66.9509 37.0119 67.2491C37.2526 67.2951 37.492 67.3174 37.7284 67.3174C39.029 67.3172 40.2286 66.6403 40.908 65.477L75.488 6.26176C76.1656 5.10103 76.1708 3.71201 75.5017 2.54623ZM38.9851 64.3543C38.4952 65.193 37.6699 65.1081 37.4287 65.0623C37.1875 65.0164 36.3891 64.7917 36.2422 63.8315L30.9744 29.3902L34.5686 27.327C35.1018 27.0209 35.286 26.3405 34.9799 25.8074C34.6739 25.2742 33.9936 25.0901 33.4603 25.3961L29.866 27.4593L2.78189 5.54113C2.02682 4.93018 2.23551 4.12732 2.31744 3.89576C2.39938 3.66421 2.74225 2.90884 3.71374 2.90884L72.2865 2.91107C72.3858 2.91107 72.4822 2.92354 72.5764 2.94194L37.6438 22.9944C37.1107 23.3005 36.9265 23.9809 37.2325 24.5142C37.4382 24.8727 37.8133 25.0734 38.199 25.0734C38.387 25.0734 38.5775 25.0257 38.7522 24.9254L73.6846 4.87304C73.6528 4.96373 73.6151 5.05323 73.5651 5.13888L38.9851 64.3543Z" fill="#111316"/>
</svg>
