<svg fill="none" viewBox="0 0 16 16"><defs/><path fill="#2F385E" d="M14.102 4.093l-.008-.03a3.386 3.386 0 001.469-1.844 6.828 6.828 0 01-2.126.812C12.838 2.393 12.04 2 11.095 2 9.282 2 7.78 3.467 7.78 5.281c0 .258.037.511.094.75v.032c-2.7-.155-5.145-1.528-6.75-3.5-.282.485-.438 1.178-.438 1.78 0 .938.557 2.194 1.438 2.782v.063c-.526-.022-1.065-.384-1.5-.625 0 .014.02.031.02.045 0 1.593 1.166 2.966 2.667 3.267-.261.07-.63.125-.906.125-.212 0-.424-.056-.625-.094.418 1.305 1.625 2.156 3.063 2.156v.032c-1.12.867-2.537 1.469-4.063 1.469-.265 0-.594-.032-.781-.063A9.295 9.295 0 005.031 15c6.037 0 9.344-4.969 9.344-9.313V5.25c.642-.464 1.186-1.09 1.625-1.75 0 0-1.152.546-1.898.593zm-.977 1.595a8.2 8.2 0 01-.531 2.848 8.332 8.332 0 01-1.563 2.608c-1.053 1.189-2.949 2.606-6 2.606-.09 0-.179-.002-.268-.005.294-.17.577-.36.847-.57l.484-.375v-1.987l-.515-.006a1.028 1.028 0 01-1.016-1.028V8.757l-.676-.153a.656.656 0 01-.512-.64v-.87l-.016-.637-.556-.372a2.55 2.55 0 01-.612-.802A10.567 10.567 0 007.804 7.31l1.321.076V5.884l-.034-.144a1.987 1.987 0 01-.06-.459c0-.538.215-1.046.605-1.43.392-.388.91-.601 1.458-.601.554 0 1.036.214 1.432.637l.319.34.039.149.008.03.233.903v.378z"/></svg>