<svg fill="none" viewBox="0 0 16 16"><defs/><g fill="#2F385E" clip-path="url(#clip0)"><path d="M14.365 2.59L8.24.049a.625.625 0 00-.48 0L1.635 2.59a.625.625 0 00-.385.577v3.091c0 4.257 2.573 8.086 6.514 9.695a.626.626 0 00.472 0 10.467 10.467 0 006.514-9.695V3.168a.625.625 0 00-.385-.577zM13.5 6.26A9.219 9.219 0 018 14.695a9.219 9.219 0 01-5.5-8.437V3.585L8 1.302l5.5 2.283V6.26zM7.31 8.365L9.994 5.68a.625.625 0 11.884.884L7.751 9.692a.625.625 0 01-.884 0L5.12 7.945a.625.625 0 11.884-.884L7.31 8.366z"/><path fill-rule="evenodd" d="M8.278-.045l6.125 2.543-.038.093L8.24.048a.625.625 0 00-.48 0L1.635 2.59a.625.625 0 00-.385.577v3.091c0 4.257 2.573 8.086 6.514 9.695a.626.626 0 00.472 0 10.467 10.467 0 006.514-9.695V3.168a.625.625 0 00-.385-.577l.038-.093c.27.113.447.377.447.67v3.091c0 4.298-2.598 8.163-6.576 9.787a.725.725 0 01-.548 0A10.567 10.567 0 011.15 6.26V3.168c0-.293.176-.557.447-.67L7.722-.045a.725.725 0 01.556 0zm2.601 6.609a.625.625 0 10-.884-.884L7.31 8.366 6.004 7.061a.625.625 0 10-.884.884l1.747 1.747c.244.244.64.244.884 0l3.128-3.128zm-4.804.427L7.31 8.225l2.616-2.616a.725.725 0 011.025 1.025L7.822 9.763a.725.725 0 01-1.026 0L5.05 8.016A.725.725 0 116.075 6.99zM8 14.587a9.119 9.119 0 005.4-8.328V3.652L8 1.41 2.6 3.652v2.607A9.119 9.119 0 008 14.587zm0 .109a9.219 9.219 0 01-5.5-8.437V3.585L8 1.302l5.5 2.283V6.26A9.219 9.219 0 018 14.696z" clip-rule="evenodd"/></g><defs><clipPath id="clip0"><path fill="#fff" d="M0 0h16v16H0z"/></clipPath></defs></svg>