<svg fill="none" viewBox="0 0 24 24"><defs/><path fill="#2F385E" d="M17.763 8.44H4.88A2.885 2.885 0 012 5.56 3.563 3.563 0 015.56 2h9.49a3.563 3.563 0 013.56 3.56v2.033a.848.848 0 01-.847.848zM5.559 3.696a1.868 1.868 0 00-1.864 1.864A1.186 1.186 0 004.88 6.746h12.034V5.559a1.868 1.868 0 00-1.864-1.864H5.559z"/><path fill="#2F385E" d="M18.44 22H5.56A3.562 3.562 0 012 18.44V5.56a.847.847 0 011.695 0v12.88a1.868 1.868 0 001.864 1.865h12.882a1.868 1.868 0 001.864-1.864v-8.136a1.868 1.868 0 00-1.864-1.864h-3.193a.847.847 0 110-1.695h3.193A3.563 3.563 0 0122 10.306v8.135A3.563 3.563 0 0118.44 22z"/><path fill="#2F385E" d="M21.152 17.932H15.73a3.56 3.56 0 110-7.118h5.424a.848.848 0 01.847.847v5.424a.847.847 0 01-.848.847zm-5.423-5.424a1.864 1.864 0 100 3.73h4.576v-3.73h-4.576z"/><path fill="#2F385E" d="M17.085 15.39a1.017 1.017 0 100-2.034 1.017 1.017 0 000 2.034z"/></svg>